<svg width="32" height="32" viewBox="0 0 32 32" fill="none" xmlns="http://www.w3.org/2000/svg">
<rect width="32" height="32" rx="8" fill="#0F0F0F"/>
<path d="M24.8433 13.9001L17.3686 26.3975C17.1755 26.7202 16.7087 26.7224 16.5127 26.4014L13.884 22.0953C13.7869 21.9362 13.7863 21.7363 13.8825 21.5767L21.5875 8.79071C21.7889 8.4565 22.2785 8.4715 22.459 8.81741L24.8574 13.4121C24.9378 13.5662 24.9325 13.751 24.8433 13.9001Z" fill="white"/>
<path d="M20.5329 8.79935L17.4709 13.5572C17.3788 13.7002 17.2204 13.7866 17.0504 13.7866L10.8388 13.7866C10.6865 13.7866 10.5425 13.7172 10.4476 13.598L6.65679 8.83745C6.39592 8.50985 6.62926 8.0259 7.04803 8.02599L20.1125 8.02876C20.5082 8.02884 20.747 8.46665 20.5329 8.79935Z" fill="white"/>
</svg>
