<svg width="182" height="191" viewBox="0 0 182 191" fill="none" xmlns="http://www.w3.org/2000/svg">
<rect width="182" height="191" fill="white"/>
<g filter="url(#filter0_d_306_40)">
<path d="M103.776 62.243L93.8821 78.7833C93.496 79.4288 92.5623 79.433 92.1704 78.7911L88.9357 73.4928C88.7415 73.1747 88.7404 72.7748 88.9328 72.4556L99.1122 55.5648C99.515 54.8964 100.494 54.9264 100.855 55.6182L103.804 61.2669C103.965 61.5751 103.954 61.9447 103.776 62.243Z" fill="black"/>
<path d="M97.6427 55.5808L93.8479 61.4766C93.6639 61.7626 93.3471 61.9354 93.0071 61.9354L84.8113 61.9354C84.5067 61.9354 84.2188 61.7966 84.029 61.5583L79.331 55.659C78.8093 55.0038 79.2759 54.0358 80.1135 54.036L96.802 54.0396C97.5933 54.0397 98.0709 54.9154 97.6427 55.5808Z" fill="black"/>
</g>
<path d="M39.8966 93.24C39.8966 92.5467 40.0193 91.8693 40.2646 91.208C40.5206 90.536 40.8886 89.928 41.3686 89.384C41.8486 88.8293 42.4353 88.392 43.1286 88.072C43.822 87.7413 44.6113 87.576 45.4966 87.576C46.542 87.576 47.4433 87.8053 48.2006 88.264C48.9686 88.7227 49.5393 89.32 49.9126 90.056L48.2166 91.224C48.0246 90.7973 47.774 90.4613 47.4646 90.216C47.1553 89.96 46.8246 89.784 46.4726 89.688C46.1206 89.5813 45.774 89.528 45.4326 89.528C44.878 89.528 44.3926 89.64 43.9766 89.864C43.5713 90.088 43.23 90.3813 42.9526 90.744C42.6753 91.1067 42.4673 91.512 42.3286 91.96C42.2006 92.408 42.1366 92.856 42.1366 93.304C42.1366 93.8053 42.2166 94.2907 42.3766 94.76C42.5366 95.2187 42.7606 95.6293 43.0486 95.992C43.3473 96.344 43.6993 96.6267 44.1046 96.84C44.5206 97.0427 44.974 97.144 45.4646 97.144C45.8166 97.144 46.174 97.0853 46.5366 96.968C46.8993 96.8507 47.2353 96.664 47.5446 96.408C47.854 96.152 48.094 95.8213 48.2646 95.416L50.0726 96.456C49.8486 97.0213 49.4806 97.5013 48.9686 97.896C48.4673 98.2907 47.902 98.5893 47.2726 98.792C46.6433 98.9947 46.0193 99.096 45.4006 99.096C44.59 99.096 43.8486 98.9307 43.1766 98.6C42.5046 98.2587 41.9233 97.8107 41.4326 97.256C40.9526 96.6907 40.574 96.0613 40.2966 95.368C40.03 94.664 39.8966 93.9547 39.8966 93.24ZM54.8661 99.16C54.1835 99.16 53.5701 99.048 53.0261 98.824C52.4821 98.5893 52.0181 98.2693 51.6341 97.864C51.2608 97.4587 50.9728 96.9947 50.7701 96.472C50.5675 95.9493 50.4661 95.4 50.4661 94.824C50.4661 94.2373 50.5675 93.6827 50.7701 93.16C50.9728 92.6373 51.2608 92.1733 51.6341 91.768C52.0181 91.3627 52.4821 91.048 53.0261 90.824C53.5701 90.5893 54.1835 90.472 54.8661 90.472C55.5488 90.472 56.1568 90.5893 56.6901 90.824C57.2341 91.048 57.6981 91.3627 58.0821 91.768C58.4661 92.1733 58.7541 92.6373 58.9461 93.16C59.1488 93.6827 59.2501 94.2373 59.2501 94.824C59.2501 95.4 59.1488 95.9493 58.9461 96.472C58.7541 96.9947 58.4661 97.4587 58.0821 97.864C57.7088 98.2693 57.2501 98.5893 56.7061 98.824C56.1621 99.048 55.5488 99.16 54.8661 99.16ZM52.6741 94.824C52.6741 95.3147 52.7701 95.752 52.9621 96.136C53.1541 96.5093 53.4155 96.8027 53.7461 97.016C54.0768 97.2293 54.4501 97.336 54.8661 97.336C55.2715 97.336 55.6395 97.2293 55.9701 97.016C56.3008 96.792 56.5621 96.4933 56.7541 96.12C56.9568 95.736 57.0581 95.2987 57.0581 94.808C57.0581 94.328 56.9568 93.896 56.7541 93.512C56.5621 93.128 56.3008 92.8293 55.9701 92.616C55.6395 92.4027 55.2715 92.296 54.8661 92.296C54.4501 92.296 54.0768 92.408 53.7461 92.632C53.4155 92.8453 53.1541 93.144 52.9621 93.528C52.7701 93.9013 52.6741 94.3333 52.6741 94.824ZM73.4012 99H71.2572V94.296C71.2572 93.6347 71.1399 93.1493 70.9052 92.84C70.6812 92.52 70.3666 92.36 69.9612 92.36C69.5452 92.36 69.1452 92.5253 68.7612 92.856C68.3879 93.176 68.1212 93.5973 67.9612 94.12V99H65.8172V94.296C65.8172 93.624 65.6999 93.1333 65.4652 92.824C65.2412 92.5147 64.9266 92.36 64.5212 92.36C64.1052 92.36 63.7052 92.52 63.3212 92.84C62.9479 93.16 62.6812 93.5813 62.5212 94.104V99H60.3772V90.616H62.3132V92.168C62.6332 91.624 63.0599 91.208 63.5932 90.92C64.1266 90.6213 64.7399 90.472 65.4332 90.472C66.1266 90.472 66.6652 90.6427 67.0492 90.984C67.4439 91.3253 67.6946 91.7467 67.8012 92.248C68.1426 91.672 68.5746 91.2347 69.0972 90.936C69.6306 90.6267 70.2279 90.472 70.8892 90.472C71.4119 90.472 71.8332 90.568 72.1532 90.76C72.4839 90.9413 72.7399 91.192 72.9212 91.512C73.1026 91.8213 73.2252 92.1733 73.2892 92.568C73.3639 92.9627 73.4012 93.3627 73.4012 93.768V99ZM74.9479 99V90.616H77.0919V99H74.9479ZM74.9479 89.448V87.32H77.0919V89.448H74.9479ZM86.498 99H84.354V94.296C84.354 93.624 84.2367 93.1333 84.002 92.824C83.7673 92.5147 83.442 92.36 83.026 92.36C82.738 92.36 82.4447 92.4347 82.146 92.584C81.858 92.7333 81.5967 92.9413 81.362 93.208C81.1273 93.464 80.9567 93.7627 80.85 94.104V99H78.706V90.616H80.642V92.168C80.8553 91.8053 81.1273 91.5013 81.458 91.256C81.7887 91 82.1673 90.808 82.594 90.68C83.0313 90.5413 83.49 90.472 83.97 90.472C84.4927 90.472 84.9193 90.568 85.25 90.76C85.5913 90.9413 85.8473 91.192 86.018 91.512C86.1993 91.8213 86.322 92.1733 86.386 92.568C86.4607 92.9627 86.498 93.3627 86.498 93.768V99ZM91.3222 99.048C90.7676 99.048 90.2556 98.9413 89.7862 98.728C89.3276 98.504 88.9276 98.1947 88.5862 97.8C88.2556 97.4053 87.9996 96.952 87.8182 96.44C87.6369 95.928 87.5462 95.384 87.5462 94.808C87.5462 94.2 87.6422 93.6347 87.8342 93.112C88.0262 92.5893 88.2929 92.1307 88.6342 91.736C88.9863 91.3307 89.3969 91.0213 89.8663 90.808C90.3463 90.584 90.8743 90.472 91.4503 90.472C92.1009 90.472 92.6716 90.6213 93.1623 90.92C93.6529 91.208 94.0583 91.5973 94.3783 92.088V90.616H96.2502V98.6C96.2502 99.432 96.0476 100.141 95.6423 100.728C95.2476 101.325 94.6983 101.779 93.9943 102.088C93.2903 102.408 92.4903 102.568 91.5943 102.568C90.6876 102.568 89.9196 102.413 89.2903 102.104C88.6609 101.805 88.1222 101.379 87.6742 100.824L88.8422 99.688C89.1622 100.083 89.5622 100.392 90.0422 100.616C90.5329 100.84 91.0503 100.952 91.5943 100.952C92.0529 100.952 92.4689 100.867 92.8423 100.696C93.2263 100.536 93.5303 100.28 93.7543 99.928C93.9889 99.5867 94.1063 99.144 94.1063 98.6V97.544C93.8289 98.024 93.4343 98.3973 92.9223 98.664C92.4209 98.92 91.8876 99.048 91.3222 99.048ZM92.0423 97.336C92.2769 97.336 92.5009 97.2987 92.7143 97.224C92.9276 97.1493 93.1249 97.048 93.3063 96.92C93.4876 96.792 93.6476 96.6427 93.7863 96.472C93.9249 96.2907 94.0316 96.1093 94.1063 95.928V93.928C93.9783 93.5973 93.7969 93.3093 93.5623 93.064C93.3383 92.8187 93.0823 92.632 92.7943 92.504C92.5169 92.3653 92.2236 92.296 91.9142 92.296C91.5836 92.296 91.2849 92.3653 91.0182 92.504C90.7516 92.6427 90.5223 92.84 90.3303 93.096C90.1382 93.3413 89.9889 93.6187 89.8823 93.928C89.7863 94.2267 89.7383 94.5413 89.7383 94.872C89.7383 95.2133 89.7969 95.5333 89.9142 95.832C90.0316 96.1307 90.1916 96.392 90.3942 96.616C90.6076 96.84 90.8529 97.016 91.1302 97.144C91.4183 97.272 91.7223 97.336 92.0423 97.336ZM108.363 90.616C108.288 90.5413 108.149 90.44 107.947 90.312C107.755 90.184 107.515 90.0613 107.227 89.944C106.949 89.8267 106.645 89.7253 106.315 89.64C105.984 89.544 105.648 89.496 105.307 89.496C104.709 89.496 104.256 89.608 103.947 89.832C103.648 90.056 103.499 90.3707 103.499 90.776C103.499 91.0853 103.595 91.3307 103.787 91.512C103.979 91.6933 104.267 91.848 104.651 91.976C105.035 92.104 105.515 92.2427 106.091 92.392C106.837 92.5733 107.483 92.7973 108.027 93.064C108.581 93.32 109.003 93.6613 109.291 94.088C109.589 94.504 109.739 95.0587 109.739 95.752C109.739 96.36 109.627 96.8827 109.403 97.32C109.179 97.7467 108.869 98.0933 108.475 98.36C108.08 98.6267 107.632 98.824 107.131 98.952C106.629 99.0693 106.096 99.128 105.531 99.128C104.965 99.128 104.4 99.0693 103.835 98.952C103.269 98.8347 102.725 98.6693 102.203 98.456C101.68 98.232 101.2 97.9653 100.763 97.656L101.739 95.752C101.835 95.848 102.005 95.976 102.251 96.136C102.496 96.2853 102.795 96.44 103.147 96.6C103.499 96.7493 103.883 96.8773 104.299 96.984C104.715 97.0907 105.136 97.144 105.563 97.144C106.16 97.144 106.613 97.0427 106.923 96.84C107.232 96.6373 107.387 96.3493 107.387 95.976C107.387 95.6347 107.264 95.368 107.019 95.176C106.773 94.984 106.432 94.8187 105.995 94.68C105.557 94.5307 105.04 94.3707 104.443 94.2C103.728 93.9973 103.131 93.7733 102.651 93.528C102.171 93.272 101.813 92.952 101.579 92.568C101.344 92.184 101.227 91.704 101.227 91.128C101.227 90.3493 101.408 89.6987 101.771 89.176C102.144 88.6427 102.645 88.2427 103.275 87.976C103.904 87.6987 104.603 87.56 105.371 87.56C105.904 87.56 106.405 87.6187 106.875 87.736C107.355 87.8533 107.803 88.008 108.219 88.2C108.635 88.392 109.008 88.6 109.339 88.824L108.363 90.616ZM114.751 99.16C114.068 99.16 113.455 99.048 112.911 98.824C112.367 98.5893 111.903 98.2693 111.519 97.864C111.146 97.4587 110.858 96.9947 110.655 96.472C110.452 95.9493 110.351 95.4 110.351 94.824C110.351 94.2373 110.452 93.6827 110.655 93.16C110.858 92.6373 111.146 92.1733 111.519 91.768C111.903 91.3627 112.367 91.048 112.911 90.824C113.455 90.5893 114.068 90.472 114.751 90.472C115.434 90.472 116.042 90.5893 116.575 90.824C117.119 91.048 117.583 91.3627 117.967 91.768C118.351 92.1733 118.639 92.6373 118.831 93.16C119.034 93.6827 119.135 94.2373 119.135 94.824C119.135 95.4 119.034 95.9493 118.831 96.472C118.639 96.9947 118.351 97.4587 117.967 97.864C117.594 98.2693 117.135 98.5893 116.591 98.824C116.047 99.048 115.434 99.16 114.751 99.16ZM112.559 94.824C112.559 95.3147 112.655 95.752 112.847 96.136C113.039 96.5093 113.3 96.8027 113.631 97.016C113.962 97.2293 114.335 97.336 114.751 97.336C115.156 97.336 115.524 97.2293 115.855 97.016C116.186 96.792 116.447 96.4933 116.639 96.12C116.842 95.736 116.943 95.2987 116.943 94.808C116.943 94.328 116.842 93.896 116.639 93.512C116.447 93.128 116.186 92.8293 115.855 92.616C115.524 92.4027 115.156 92.296 114.751 92.296C114.335 92.296 113.962 92.408 113.631 92.632C113.3 92.8453 113.039 93.144 112.847 93.528C112.655 93.9013 112.559 94.3333 112.559 94.824ZM124.134 99.16C123.452 99.16 122.838 99.048 122.294 98.824C121.75 98.5893 121.286 98.2693 120.902 97.864C120.529 97.4587 120.241 96.9947 120.038 96.472C119.836 95.9493 119.734 95.4 119.734 94.824C119.734 94.2373 119.836 93.6827 120.038 93.16C120.241 92.6373 120.529 92.1733 120.902 91.768C121.286 91.3627 121.75 91.048 122.294 90.824C122.838 90.5893 123.452 90.472 124.134 90.472C124.817 90.472 125.425 90.5893 125.958 90.824C126.502 91.048 126.966 91.3627 127.35 91.768C127.734 92.1733 128.022 92.6373 128.214 93.16C128.417 93.6827 128.518 94.2373 128.518 94.824C128.518 95.4 128.417 95.9493 128.214 96.472C128.022 96.9947 127.734 97.4587 127.35 97.864C126.977 98.2693 126.518 98.5893 125.974 98.824C125.43 99.048 124.817 99.16 124.134 99.16ZM121.942 94.824C121.942 95.3147 122.038 95.752 122.23 96.136C122.422 96.5093 122.684 96.8027 123.014 97.016C123.345 97.2293 123.718 97.336 124.134 97.336C124.54 97.336 124.908 97.2293 125.238 97.016C125.569 96.792 125.83 96.4933 126.022 96.12C126.225 95.736 126.326 95.2987 126.326 94.808C126.326 94.328 126.225 93.896 126.022 93.512C125.83 93.128 125.569 92.8293 125.238 92.616C124.908 92.4027 124.54 92.296 124.134 92.296C123.718 92.296 123.345 92.408 123.014 92.632C122.684 92.8453 122.422 93.144 122.23 93.528C122.038 93.9013 121.942 94.3333 121.942 94.824ZM137.437 99H135.293V94.296C135.293 93.624 135.176 93.1333 134.941 92.824C134.707 92.5147 134.381 92.36 133.965 92.36C133.677 92.36 133.384 92.4347 133.085 92.584C132.797 92.7333 132.536 92.9413 132.301 93.208C132.067 93.464 131.896 93.7627 131.789 94.104V99H129.645V90.616H131.581V92.168C131.795 91.8053 132.067 91.5013 132.397 91.256C132.728 91 133.107 90.808 133.533 90.68C133.971 90.5413 134.429 90.472 134.909 90.472C135.432 90.472 135.859 90.568 136.189 90.76C136.531 90.9413 136.787 91.192 136.957 91.512C137.139 91.8213 137.261 92.1733 137.325 92.568C137.4 92.9627 137.437 93.3627 137.437 93.768V99ZM138.934 99V96.696H140.694V99H138.934Z" fill="black"/>
<path d="M33.5652 109.36H34.0932L34.8932 111.376L35.7012 109.36H36.2372L35.2452 111.784L36.3332 114.352L38.3892 109.32H38.9972L36.5892 115H36.0932L34.9012 112.192L33.7012 115H33.2132L30.8132 109.32H31.4132L33.4772 114.352L34.5572 111.784L33.5652 109.36ZM40.7614 115.08C40.4627 115.08 40.1854 115.024 39.9294 114.912C39.6787 114.795 39.46 114.637 39.2734 114.44C39.092 114.237 38.9507 114.008 38.8494 113.752C38.748 113.491 38.6974 113.216 38.6974 112.928C38.6974 112.629 38.748 112.352 38.8494 112.096C38.9507 111.835 39.0947 111.605 39.2814 111.408C39.468 111.205 39.6867 111.048 39.9374 110.936C40.1934 110.819 40.4707 110.76 40.7694 110.76C41.068 110.76 41.3427 110.819 41.5934 110.936C41.844 111.048 42.0627 111.205 42.2494 111.408C42.436 111.605 42.58 111.835 42.6814 112.096C42.7827 112.352 42.8334 112.629 42.8334 112.928C42.8334 113.216 42.7827 113.491 42.6814 113.752C42.58 114.008 42.436 114.237 42.2494 114.44C42.068 114.637 41.8494 114.795 41.5934 114.912C41.3427 115.024 41.0654 115.08 40.7614 115.08ZM39.2494 112.936C39.2494 113.245 39.316 113.528 39.4494 113.784C39.588 114.035 39.772 114.235 40.0014 114.384C40.2307 114.528 40.484 114.6 40.7614 114.6C41.0387 114.6 41.292 114.525 41.5214 114.376C41.7507 114.227 41.9347 114.024 42.0734 113.768C42.212 113.507 42.2814 113.224 42.2814 112.92C42.2814 112.611 42.212 112.328 42.0734 112.072C41.9347 111.816 41.7507 111.613 41.5214 111.464C41.292 111.315 41.0387 111.24 40.7614 111.24C40.484 111.24 40.2307 111.317 40.0014 111.472C39.7774 111.627 39.596 111.832 39.4574 112.088C39.3187 112.339 39.2494 112.621 39.2494 112.936ZM45.6632 111.312C45.3005 111.323 44.9805 111.424 44.7032 111.616C44.4312 111.808 44.2392 112.072 44.1272 112.408V115H43.5832V110.832H44.0952V111.832C44.2392 111.539 44.4285 111.301 44.6632 111.12C44.9032 110.939 45.1565 110.837 45.4232 110.816C45.4765 110.811 45.5218 110.808 45.5592 110.808C45.6018 110.808 45.6365 110.811 45.6632 110.816V111.312ZM49.2039 115L47.6599 112.864L46.7719 113.696V115H46.2279V109.16H46.7719V113.112L49.1319 110.84H49.7319L48.0279 112.544L49.7959 115H49.2039ZM53.9651 115.08C53.6664 115.08 53.3891 115.024 53.1331 114.912C52.8824 114.795 52.6638 114.637 52.4771 114.44C52.2958 114.237 52.1544 114.008 52.0531 113.752C51.9518 113.491 51.9011 113.216 51.9011 112.928C51.9011 112.629 51.9518 112.352 52.0531 112.096C52.1544 111.835 52.2984 111.605 52.4851 111.408C52.6718 111.205 52.8904 111.048 53.1411 110.936C53.3971 110.819 53.6744 110.76 53.9731 110.76C54.2718 110.76 54.5464 110.819 54.7971 110.936C55.0478 111.048 55.2664 111.205 55.4531 111.408C55.6398 111.605 55.7838 111.835 55.8851 112.096C55.9864 112.352 56.0371 112.629 56.0371 112.928C56.0371 113.216 55.9864 113.491 55.8851 113.752C55.7838 114.008 55.6398 114.237 55.4531 114.44C55.2718 114.637 55.0531 114.795 54.7971 114.912C54.5464 115.024 54.2691 115.08 53.9651 115.08ZM52.4531 112.936C52.4531 113.245 52.5198 113.528 52.6531 113.784C52.7918 114.035 52.9758 114.235 53.2051 114.384C53.4344 114.528 53.6878 114.6 53.9651 114.6C54.2424 114.6 54.4958 114.525 54.7251 114.376C54.9544 114.227 55.1384 114.024 55.2771 113.768C55.4158 113.507 55.4851 113.224 55.4851 112.92C55.4851 112.611 55.4158 112.328 55.2771 112.072C55.1384 111.816 54.9544 111.613 54.7251 111.464C54.4958 111.315 54.2424 111.24 53.9651 111.24C53.6878 111.24 53.4344 111.317 53.2051 111.472C52.9811 111.627 52.7998 111.832 52.6611 112.088C52.5224 112.339 52.4531 112.621 52.4531 112.936ZM60.2909 115H59.7469V112.672C59.7469 112.181 59.6749 111.824 59.5309 111.6C59.3869 111.371 59.1602 111.256 58.8509 111.256C58.6376 111.256 58.4269 111.309 58.2189 111.416C58.0109 111.517 57.8269 111.659 57.6669 111.84C57.5122 112.016 57.4002 112.219 57.3309 112.448V115H56.7869V110.832H57.2829V111.776C57.3949 111.573 57.5416 111.397 57.7229 111.248C57.9042 111.093 58.1096 110.973 58.3389 110.888C58.5682 110.803 58.8056 110.76 59.0509 110.76C59.2802 110.76 59.4749 110.803 59.6349 110.888C59.7949 110.973 59.9229 111.096 60.0189 111.256C60.1149 111.411 60.1842 111.6 60.2269 111.824C60.2696 112.043 60.2909 112.288 60.2909 112.56V115ZM65.17 114.8C65.1274 114.816 65.0607 114.845 64.97 114.888C64.8794 114.931 64.77 114.968 64.642 115C64.514 115.032 64.3754 115.048 64.226 115.048C64.0714 115.048 63.9247 115.019 63.786 114.96C63.6527 114.901 63.546 114.813 63.466 114.696C63.386 114.573 63.346 114.424 63.346 114.248V111.264H62.77V110.832H63.346V109.424H63.89V110.832H64.85V111.264H63.89V114.096C63.9007 114.245 63.954 114.357 64.05 114.432C64.1514 114.507 64.266 114.544 64.394 114.544C64.5434 114.544 64.6794 114.52 64.802 114.472C64.9247 114.419 64.9994 114.381 65.026 114.36L65.17 114.8ZM69.1937 115H68.6497V112.672C68.6497 112.203 68.5671 111.851 68.4017 111.616C68.2364 111.376 67.9991 111.256 67.6897 111.256C67.4871 111.256 67.2844 111.309 67.0817 111.416C66.8844 111.517 66.7084 111.659 66.5537 111.84C66.4044 112.016 66.2977 112.219 66.2337 112.448V115H65.6897V109.16H66.2337V111.776C66.3991 111.467 66.6284 111.221 66.9217 111.04C67.2204 110.853 67.5377 110.76 67.8737 110.76C68.1137 110.76 68.3164 110.803 68.4817 110.888C68.6524 110.973 68.7884 111.099 68.8897 111.264C68.9964 111.424 69.0737 111.613 69.1217 111.832C69.1697 112.045 69.1937 112.288 69.1937 112.56V115ZM70.1938 115V110.832H70.7378V115H70.1938ZM70.1938 109.96V109.16H70.7378V109.96H70.1938ZM73.144 115.08C72.8026 115.08 72.4853 115.024 72.192 114.912C71.8986 114.8 71.6453 114.629 71.432 114.4L71.656 114.016C71.8906 114.235 72.1253 114.395 72.36 114.496C72.6 114.592 72.8533 114.64 73.12 114.64C73.4453 114.64 73.7093 114.576 73.912 114.448C74.1146 114.315 74.216 114.125 74.216 113.88C74.216 113.715 74.1653 113.589 74.064 113.504C73.968 113.413 73.8266 113.341 73.64 113.288C73.4586 113.229 73.24 113.168 72.984 113.104C72.696 113.024 72.4533 112.941 72.256 112.856C72.064 112.765 71.9173 112.653 71.816 112.52C71.72 112.381 71.672 112.203 71.672 111.984C71.672 111.712 71.7386 111.488 71.872 111.312C72.0106 111.131 72.1973 110.995 72.432 110.904C72.672 110.808 72.9386 110.76 73.232 110.76C73.552 110.76 73.8346 110.811 74.08 110.912C74.3253 111.013 74.5253 111.155 74.68 111.336L74.416 111.704C74.2666 111.533 74.088 111.408 73.88 111.328C73.6773 111.243 73.4506 111.2 73.2 111.2C73.0293 111.2 72.8666 111.224 72.712 111.272C72.5573 111.315 72.4293 111.389 72.328 111.496C72.232 111.597 72.184 111.739 72.184 111.92C72.184 112.069 72.2213 112.187 72.296 112.272C72.3706 112.352 72.4826 112.421 72.632 112.48C72.7813 112.533 72.9653 112.592 73.184 112.656C73.4986 112.741 73.7733 112.829 74.008 112.92C74.2426 113.005 74.424 113.117 74.552 113.256C74.68 113.395 74.744 113.589 74.744 113.84C74.744 114.229 74.5973 114.533 74.304 114.752C74.0106 114.971 73.624 115.08 73.144 115.08ZM79.4902 115.08C79.1436 115.08 78.8316 114.989 78.5542 114.808C78.2822 114.627 78.0662 114.403 77.9062 114.136V116.704H77.3622V110.832H77.8502V111.64C78.0156 111.379 78.2369 111.168 78.5142 111.008C78.7916 110.843 79.0876 110.76 79.4022 110.76C79.6902 110.76 79.9542 110.821 80.1942 110.944C80.4342 111.061 80.6422 111.221 80.8182 111.424C80.9942 111.627 81.1302 111.859 81.2262 112.12C81.3276 112.376 81.3782 112.643 81.3782 112.92C81.3782 113.309 81.2982 113.669 81.1382 114C80.9836 114.325 80.7649 114.587 80.4822 114.784C80.1996 114.981 79.8689 115.08 79.4902 115.08ZM79.3382 114.6C79.5676 114.6 79.7729 114.555 79.9542 114.464C80.1356 114.368 80.2902 114.24 80.4182 114.08C80.5516 113.92 80.6529 113.741 80.7222 113.544C80.7916 113.341 80.8262 113.133 80.8262 112.92C80.8262 112.696 80.7862 112.483 80.7062 112.28C80.6316 112.077 80.5222 111.899 80.3782 111.744C80.2342 111.589 80.0689 111.467 79.8822 111.376C79.6956 111.285 79.4929 111.24 79.2742 111.24C79.1356 111.24 78.9916 111.267 78.8422 111.32C78.6929 111.373 78.5489 111.451 78.4102 111.552C78.2769 111.648 78.1649 111.757 78.0742 111.88C77.9836 112.003 77.9276 112.133 77.9062 112.272V113.552C77.9916 113.749 78.1062 113.928 78.2502 114.088C78.3942 114.243 78.5596 114.368 78.7462 114.464C78.9382 114.555 79.1356 114.6 79.3382 114.6ZM84.2197 111.312C83.8571 111.323 83.5371 111.424 83.2597 111.616C82.9877 111.808 82.7957 112.072 82.6837 112.408V115H82.1397V110.832H82.6517V111.832C82.7957 111.539 82.9851 111.301 83.2197 111.12C83.4597 110.939 83.7131 110.837 83.9797 110.816C84.0331 110.811 84.0784 110.808 84.1157 110.808C84.1584 110.808 84.1931 110.811 84.2197 110.816V111.312ZM86.4276 115.08C86.1289 115.08 85.8516 115.024 85.5956 114.912C85.3449 114.795 85.1263 114.637 84.9396 114.44C84.7583 114.237 84.6169 114.008 84.5156 113.752C84.4143 113.491 84.3636 113.216 84.3636 112.928C84.3636 112.629 84.4143 112.352 84.5156 112.096C84.6169 111.835 84.7609 111.605 84.9476 111.408C85.1343 111.205 85.3529 111.048 85.6036 110.936C85.8596 110.819 86.1369 110.76 86.4356 110.76C86.7343 110.76 87.0089 110.819 87.2596 110.936C87.5103 111.048 87.7289 111.205 87.9156 111.408C88.1023 111.605 88.2463 111.835 88.3476 112.096C88.4489 112.352 88.4996 112.629 88.4996 112.928C88.4996 113.216 88.4489 113.491 88.3476 113.752C88.2463 114.008 88.1023 114.237 87.9156 114.44C87.7343 114.637 87.5156 114.795 87.2596 114.912C87.0089 115.024 86.7316 115.08 86.4276 115.08ZM84.9156 112.936C84.9156 113.245 84.9823 113.528 85.1156 113.784C85.2543 114.035 85.4383 114.235 85.6676 114.384C85.8969 114.528 86.1503 114.6 86.4276 114.6C86.7049 114.6 86.9583 114.525 87.1876 114.376C87.4169 114.227 87.6009 114.024 87.7396 113.768C87.8783 113.507 87.9476 113.224 87.9476 112.92C87.9476 112.611 87.8783 112.328 87.7396 112.072C87.6009 111.816 87.4169 111.613 87.1876 111.464C86.9583 111.315 86.7049 111.24 86.4276 111.24C86.1503 111.24 85.8969 111.317 85.6676 111.472C85.4436 111.627 85.2623 111.832 85.1236 112.088C84.9849 112.339 84.9156 112.621 84.9156 112.936ZM88.6254 116.448C88.4494 116.448 88.2841 116.424 88.1294 116.376C87.9694 116.328 87.8307 116.248 87.7134 116.136L87.9774 115.768C88.0574 115.843 88.1507 115.893 88.2574 115.92C88.3587 115.947 88.4601 115.96 88.5614 115.96C88.6894 115.96 88.8094 115.928 88.9214 115.864C89.0334 115.8 89.1241 115.709 89.1934 115.592C89.2681 115.48 89.3054 115.355 89.3054 115.216V110.832H89.8494V115.184C89.8494 115.429 89.7907 115.648 89.6734 115.84C89.5561 116.032 89.4041 116.181 89.2174 116.288C89.0307 116.395 88.8334 116.448 88.6254 116.448ZM89.3054 109.96V109.16H89.8494V109.96H89.3054ZM92.6863 115.08C92.3876 115.08 92.1103 115.024 91.8543 114.912C91.5983 114.795 91.377 114.637 91.1903 114.44C91.0036 114.237 90.857 114.005 90.7503 113.744C90.649 113.483 90.5983 113.203 90.5983 112.904C90.5983 112.515 90.6863 112.157 90.8623 111.832C91.0436 111.507 91.2916 111.248 91.6063 111.056C91.921 110.859 92.2783 110.76 92.6783 110.76C93.089 110.76 93.4463 110.859 93.7503 111.056C94.0596 111.253 94.3023 111.515 94.4783 111.84C94.6543 112.16 94.7423 112.512 94.7423 112.896C94.7423 112.939 94.7423 112.981 94.7423 113.024C94.7423 113.061 94.7396 113.091 94.7343 113.112H91.1663C91.193 113.411 91.2756 113.677 91.4143 113.912C91.5583 114.141 91.7423 114.325 91.9663 114.464C92.1956 114.597 92.4436 114.664 92.7103 114.664C92.9823 114.664 93.2383 114.595 93.4783 114.456C93.7236 114.317 93.8943 114.136 93.9903 113.912L94.4623 114.04C94.377 114.237 94.2463 114.416 94.0703 114.576C93.8943 114.736 93.6863 114.861 93.4463 114.952C93.2116 115.037 92.9583 115.08 92.6863 115.08ZM91.1503 112.72H94.2303C94.209 112.416 94.1263 112.149 93.9823 111.92C93.8436 111.691 93.6596 111.512 93.4303 111.384C93.2063 111.251 92.9583 111.184 92.6863 111.184C92.4143 111.184 92.1663 111.251 91.9423 111.384C91.7183 111.512 91.5343 111.693 91.3903 111.928C91.2516 112.157 91.1716 112.421 91.1503 112.72ZM97.2296 115.08C96.9256 115.08 96.6456 115.024 96.3896 114.912C96.1389 114.795 95.9176 114.635 95.7256 114.432C95.5389 114.229 95.3923 113.997 95.2856 113.736C95.1843 113.475 95.1336 113.197 95.1336 112.904C95.1336 112.509 95.2216 112.149 95.3976 111.824C95.5736 111.499 95.8189 111.24 96.1336 111.048C96.4483 110.856 96.8109 110.76 97.2216 110.76C97.6109 110.76 97.9549 110.851 98.2536 111.032C98.5523 111.208 98.7736 111.448 98.9176 111.752L98.3896 111.92C98.2723 111.707 98.1069 111.541 97.8936 111.424C97.6856 111.301 97.4536 111.24 97.1976 111.24C96.9203 111.24 96.6669 111.312 96.4376 111.456C96.2083 111.6 96.0243 111.797 95.8856 112.048C95.7523 112.299 95.6856 112.584 95.6856 112.904C95.6856 113.219 95.7549 113.504 95.8936 113.76C96.0323 114.016 96.2163 114.221 96.4456 114.376C96.6749 114.525 96.9283 114.6 97.2056 114.6C97.3869 114.6 97.5603 114.568 97.7256 114.504C97.8963 114.44 98.0429 114.355 98.1656 114.248C98.2936 114.136 98.3789 114.016 98.4216 113.888L98.9576 114.048C98.8829 114.245 98.7576 114.424 98.5816 114.584C98.4109 114.739 98.2083 114.861 97.9736 114.952C97.7443 115.037 97.4963 115.08 97.2296 115.08ZM101.652 114.8C101.61 114.816 101.543 114.845 101.452 114.888C101.362 114.931 101.252 114.968 101.124 115C100.996 115.032 100.858 115.048 100.708 115.048C100.554 115.048 100.407 115.019 100.268 114.96C100.135 114.901 100.028 114.813 99.9482 114.696C99.8682 114.573 99.8282 114.424 99.8282 114.248V111.264H99.2522V110.832H99.8282V109.424H100.372V110.832H101.332V111.264H100.372V114.096C100.383 114.245 100.436 114.357 100.532 114.432C100.634 114.507 100.748 114.544 100.876 114.544C101.026 114.544 101.162 114.52 101.284 114.472C101.407 114.419 101.482 114.381 101.508 114.36L101.652 114.8ZM104.051 115V110.832H104.595V115H104.051ZM104.051 109.96V109.16H104.595V109.96H104.051ZM107.001 115.08C106.66 115.08 106.343 115.024 106.049 114.912C105.756 114.8 105.503 114.629 105.289 114.4L105.513 114.016C105.748 114.235 105.983 114.395 106.217 114.496C106.457 114.592 106.711 114.64 106.977 114.64C107.303 114.64 107.567 114.576 107.769 114.448C107.972 114.315 108.073 114.125 108.073 113.88C108.073 113.715 108.023 113.589 107.921 113.504C107.825 113.413 107.684 113.341 107.497 113.288C107.316 113.229 107.097 113.168 106.841 113.104C106.553 113.024 106.311 112.941 106.113 112.856C105.921 112.765 105.775 112.653 105.673 112.52C105.577 112.381 105.529 112.203 105.529 111.984C105.529 111.712 105.596 111.488 105.729 111.312C105.868 111.131 106.055 110.995 106.289 110.904C106.529 110.808 106.796 110.76 107.089 110.76C107.409 110.76 107.692 110.811 107.937 110.912C108.183 111.013 108.383 111.155 108.537 111.336L108.273 111.704C108.124 111.533 107.945 111.408 107.737 111.328C107.535 111.243 107.308 111.2 107.057 111.2C106.887 111.2 106.724 111.224 106.569 111.272C106.415 111.315 106.287 111.389 106.185 111.496C106.089 111.597 106.041 111.739 106.041 111.92C106.041 112.069 106.079 112.187 106.153 112.272C106.228 112.352 106.34 112.421 106.489 112.48C106.639 112.533 106.823 112.592 107.041 112.656C107.356 112.741 107.631 112.829 107.865 112.92C108.1 113.005 108.281 113.117 108.409 113.256C108.537 113.395 108.601 113.589 108.601 113.84C108.601 114.229 108.455 114.533 108.161 114.752C107.868 114.971 107.481 115.08 107.001 115.08ZM111.179 113.28V110.832H111.723V113.184C111.723 113.659 111.803 114.013 111.963 114.248C112.129 114.483 112.371 114.6 112.691 114.6C112.905 114.6 113.11 114.555 113.307 114.464C113.51 114.368 113.689 114.235 113.843 114.064C113.998 113.888 114.115 113.685 114.195 113.456V110.832H114.739V114.344C114.739 114.419 114.755 114.475 114.787 114.512C114.819 114.544 114.867 114.563 114.931 114.568V115C114.867 115.005 114.817 115.008 114.779 115.008C114.742 115.013 114.707 115.016 114.675 115.016C114.569 115.005 114.475 114.963 114.395 114.888C114.321 114.813 114.281 114.723 114.275 114.616L114.259 114.056C114.078 114.376 113.83 114.627 113.515 114.808C113.206 114.989 112.87 115.08 112.507 115.08C112.07 115.08 111.739 114.928 111.515 114.624C111.291 114.32 111.179 113.872 111.179 113.28ZM119.313 115H118.769V112.672C118.769 112.181 118.697 111.824 118.553 111.6C118.409 111.371 118.183 111.256 117.873 111.256C117.66 111.256 117.449 111.309 117.241 111.416C117.033 111.517 116.849 111.659 116.689 111.84C116.535 112.016 116.423 112.219 116.353 112.448V115H115.809V110.832H116.305V111.776C116.417 111.573 116.564 111.397 116.745 111.248C116.927 111.093 117.132 110.973 117.361 110.888C117.591 110.803 117.828 110.76 118.073 110.76C118.303 110.76 118.497 110.803 118.657 110.888C118.817 110.973 118.945 111.096 119.041 111.256C119.137 111.411 119.207 111.6 119.249 111.824C119.292 112.043 119.313 112.288 119.313 112.56V115ZM120.033 112.928C120.033 112.533 120.113 112.173 120.273 111.848C120.439 111.517 120.665 111.253 120.953 111.056C121.241 110.859 121.569 110.76 121.937 110.76C122.284 110.76 122.593 110.853 122.865 111.04C123.143 111.221 123.359 111.443 123.513 111.704V109.16H124.057V114.344C124.057 114.419 124.073 114.475 124.105 114.512C124.137 114.544 124.185 114.563 124.249 114.568V115C124.143 115.016 124.06 115.021 124.001 115.016C123.889 115.011 123.791 114.965 123.705 114.88C123.62 114.795 123.577 114.701 123.577 114.6V114.192C123.412 114.464 123.188 114.68 122.905 114.84C122.623 115 122.329 115.08 122.025 115.08C121.737 115.08 121.471 115.021 121.225 114.904C120.985 114.787 120.775 114.627 120.593 114.424C120.417 114.221 120.279 113.992 120.177 113.736C120.081 113.475 120.033 113.205 120.033 112.928ZM123.513 113.568V112.28C123.444 112.088 123.332 111.915 123.177 111.76C123.023 111.6 122.847 111.475 122.649 111.384C122.457 111.288 122.265 111.24 122.073 111.24C121.849 111.24 121.647 111.288 121.465 111.384C121.284 111.475 121.127 111.6 120.993 111.76C120.865 111.92 120.767 112.101 120.697 112.304C120.628 112.507 120.593 112.715 120.593 112.928C120.593 113.152 120.631 113.365 120.705 113.568C120.785 113.771 120.897 113.952 121.041 114.112C121.185 114.267 121.351 114.387 121.537 114.472C121.724 114.557 121.927 114.6 122.145 114.6C122.284 114.6 122.428 114.573 122.577 114.52C122.727 114.467 122.868 114.395 123.001 114.304C123.14 114.208 123.255 114.096 123.345 113.968C123.436 113.84 123.492 113.707 123.513 113.568ZM126.93 115.08C126.631 115.08 126.354 115.024 126.098 114.912C125.842 114.795 125.621 114.637 125.434 114.44C125.247 114.237 125.101 114.005 124.994 113.744C124.893 113.483 124.842 113.203 124.842 112.904C124.842 112.515 124.93 112.157 125.106 111.832C125.287 111.507 125.535 111.248 125.85 111.056C126.165 110.859 126.522 110.76 126.922 110.76C127.333 110.76 127.69 110.859 127.994 111.056C128.303 111.253 128.546 111.515 128.722 111.84C128.898 112.16 128.986 112.512 128.986 112.896C128.986 112.939 128.986 112.981 128.986 113.024C128.986 113.061 128.983 113.091 128.978 113.112H125.41C125.437 113.411 125.519 113.677 125.658 113.912C125.802 114.141 125.986 114.325 126.21 114.464C126.439 114.597 126.687 114.664 126.954 114.664C127.226 114.664 127.482 114.595 127.722 114.456C127.967 114.317 128.138 114.136 128.234 113.912L128.706 114.04C128.621 114.237 128.49 114.416 128.314 114.576C128.138 114.736 127.93 114.861 127.69 114.952C127.455 115.037 127.202 115.08 126.93 115.08ZM125.394 112.72H128.474C128.453 112.416 128.37 112.149 128.226 111.92C128.087 111.691 127.903 111.512 127.674 111.384C127.45 111.251 127.202 111.184 126.93 111.184C126.658 111.184 126.41 111.251 126.186 111.384C125.962 111.512 125.778 111.693 125.634 111.928C125.495 112.157 125.415 112.421 125.394 112.72ZM131.745 111.312C131.383 111.323 131.063 111.424 130.785 111.616C130.513 111.808 130.321 112.072 130.209 112.408V115H129.665V110.832H130.177V111.832C130.321 111.539 130.511 111.301 130.745 111.12C130.985 110.939 131.239 110.837 131.505 110.816C131.559 110.811 131.604 110.808 131.641 110.808C131.684 110.808 131.719 110.811 131.745 110.816V111.312ZM137.558 110.832H138.094L136.302 115H135.83L134.958 112.928L134.094 115H133.622L131.83 110.832H132.358L133.878 114.44L134.646 112.56L133.942 110.84H134.43L134.958 112.192L135.494 110.84H135.974L135.278 112.56L136.046 114.44L137.558 110.832ZM138.22 113.8C138.22 113.539 138.295 113.315 138.444 113.128C138.594 112.936 138.799 112.789 139.06 112.688C139.327 112.581 139.634 112.528 139.98 112.528C140.183 112.528 140.394 112.544 140.612 112.576C140.831 112.608 141.026 112.656 141.196 112.72V112.368C141.196 112.016 141.092 111.736 140.884 111.528C140.676 111.32 140.388 111.216 140.02 111.216C139.796 111.216 139.575 111.259 139.356 111.344C139.143 111.424 138.919 111.544 138.684 111.704L138.476 111.32C138.748 111.133 139.015 110.995 139.276 110.904C139.538 110.808 139.804 110.76 140.076 110.76C140.588 110.76 140.994 110.907 141.292 111.2C141.591 111.493 141.74 111.899 141.74 112.416V114.344C141.74 114.419 141.756 114.475 141.788 114.512C141.82 114.544 141.871 114.563 141.94 114.568V115C141.882 115.005 141.831 115.011 141.788 115.016C141.746 115.021 141.714 115.021 141.692 115.016C141.559 115.011 141.458 114.968 141.388 114.888C141.319 114.808 141.282 114.723 141.276 114.632L141.268 114.328C141.082 114.568 140.839 114.755 140.54 114.888C140.242 115.016 139.938 115.08 139.628 115.08C139.362 115.08 139.119 115.024 138.9 114.912C138.687 114.795 138.519 114.64 138.396 114.448C138.279 114.251 138.22 114.035 138.22 113.8ZM141.012 114.12C141.071 114.045 141.116 113.973 141.148 113.904C141.18 113.835 141.196 113.773 141.196 113.72V113.112C141.015 113.043 140.826 112.989 140.628 112.952C140.436 112.915 140.242 112.896 140.044 112.896C139.655 112.896 139.34 112.973 139.1 113.128C138.86 113.283 138.74 113.493 138.74 113.76C138.74 113.915 138.78 114.061 138.86 114.2C138.94 114.333 139.058 114.445 139.212 114.536C139.367 114.621 139.548 114.664 139.756 114.664C140.018 114.664 140.26 114.613 140.484 114.512C140.714 114.411 140.89 114.28 141.012 114.12ZM142.871 116.28C142.945 116.285 143.017 116.288 143.087 116.288C143.156 116.293 143.207 116.291 143.239 116.28C143.303 116.269 143.364 116.232 143.423 116.168C143.481 116.104 143.551 115.981 143.631 115.8C143.711 115.619 143.823 115.352 143.967 115L142.151 110.832H142.727L144.255 114.44L145.663 110.832H146.207L144.047 116.208C144.009 116.309 143.953 116.403 143.879 116.488C143.804 116.579 143.711 116.648 143.599 116.696C143.492 116.749 143.359 116.779 143.199 116.784C143.151 116.789 143.1 116.789 143.047 116.784C142.999 116.784 142.94 116.779 142.871 116.768V116.28ZM38.6926 123.8C38.6926 123.539 38.7673 123.315 38.9166 123.128C39.066 122.936 39.2713 122.789 39.5326 122.688C39.7993 122.581 40.106 122.528 40.4526 122.528C40.6553 122.528 40.866 122.544 41.0846 122.576C41.3033 122.608 41.498 122.656 41.6686 122.72V122.368C41.6686 122.016 41.5646 121.736 41.3566 121.528C41.1486 121.32 40.8606 121.216 40.4926 121.216C40.2686 121.216 40.0473 121.259 39.8286 121.344C39.6153 121.424 39.3913 121.544 39.1566 121.704L38.9486 121.32C39.2206 121.133 39.4873 120.995 39.7486 120.904C40.01 120.808 40.2766 120.76 40.5486 120.76C41.0606 120.76 41.466 120.907 41.7646 121.2C42.0633 121.493 42.2126 121.899 42.2126 122.416V124.344C42.2126 124.419 42.2286 124.475 42.2606 124.512C42.2926 124.544 42.3433 124.563 42.4126 124.568V125C42.354 125.005 42.3033 125.011 42.2606 125.016C42.218 125.021 42.186 125.021 42.1646 125.016C42.0313 125.011 41.93 124.968 41.8606 124.888C41.7913 124.808 41.754 124.723 41.7486 124.632L41.7406 124.328C41.554 124.568 41.3113 124.755 41.0126 124.888C40.714 125.016 40.41 125.08 40.1006 125.08C39.834 125.08 39.5913 125.024 39.3726 124.912C39.1593 124.795 38.9913 124.64 38.8686 124.448C38.7513 124.251 38.6926 124.035 38.6926 123.8ZM41.4846 124.12C41.5433 124.045 41.5886 123.973 41.6206 123.904C41.6526 123.835 41.6686 123.773 41.6686 123.72V123.112C41.4873 123.043 41.298 122.989 41.1006 122.952C40.9086 122.915 40.714 122.896 40.5166 122.896C40.1273 122.896 39.8126 122.973 39.5726 123.128C39.3326 123.283 39.2126 123.493 39.2126 123.76C39.2126 123.915 39.2526 124.061 39.3326 124.2C39.4126 124.333 39.53 124.445 39.6846 124.536C39.8393 124.621 40.0206 124.664 40.2286 124.664C40.49 124.664 40.7326 124.613 40.9566 124.512C41.186 124.411 41.362 124.28 41.4846 124.12ZM46.732 125H46.188V122.672C46.188 122.181 46.116 121.824 45.972 121.6C45.828 121.371 45.6013 121.256 45.292 121.256C45.0787 121.256 44.868 121.309 44.66 121.416C44.452 121.517 44.268 121.659 44.108 121.84C43.9533 122.016 43.8413 122.219 43.772 122.448V125H43.228V120.832H43.724V121.776C43.836 121.573 43.9827 121.397 44.164 121.248C44.3453 121.093 44.5507 120.973 44.78 120.888C45.0093 120.803 45.2467 120.76 45.492 120.76C45.7213 120.76 45.916 120.803 46.076 120.888C46.236 120.973 46.364 121.096 46.46 121.256C46.556 121.411 46.6253 121.6 46.668 121.824C46.7107 122.043 46.732 122.288 46.732 122.56V125ZM47.4521 122.928C47.4521 122.533 47.5321 122.173 47.6921 121.848C47.8574 121.517 48.0841 121.253 48.3721 121.056C48.6601 120.859 48.9881 120.76 49.3561 120.76C49.7027 120.76 50.0121 120.853 50.2841 121.04C50.5614 121.221 50.7774 121.443 50.9321 121.704V119.16H51.4761V124.344C51.4761 124.419 51.4921 124.475 51.5241 124.512C51.5561 124.544 51.6041 124.563 51.6681 124.568V125C51.5614 125.016 51.4787 125.021 51.4201 125.016C51.3081 125.011 51.2094 124.965 51.1241 124.88C51.0387 124.795 50.9961 124.701 50.9961 124.6V124.192C50.8307 124.464 50.6067 124.68 50.3241 124.84C50.0414 125 49.7481 125.08 49.4441 125.08C49.1561 125.08 48.8894 125.021 48.6441 124.904C48.4041 124.787 48.1934 124.627 48.0121 124.424C47.8361 124.221 47.6974 123.992 47.5961 123.736C47.5001 123.475 47.4521 123.205 47.4521 122.928ZM50.9321 123.568V122.28C50.8627 122.088 50.7507 121.915 50.5961 121.76C50.4414 121.6 50.2654 121.475 50.0681 121.384C49.8761 121.288 49.6841 121.24 49.4921 121.24C49.2681 121.24 49.0654 121.288 48.8841 121.384C48.7027 121.475 48.5454 121.6 48.4121 121.76C48.2841 121.92 48.1854 122.101 48.1161 122.304C48.0467 122.507 48.0121 122.715 48.0121 122.928C48.0121 123.152 48.0494 123.365 48.1241 123.568C48.2041 123.771 48.3161 123.952 48.4601 124.112C48.6041 124.267 48.7694 124.387 48.9561 124.472C49.1427 124.557 49.3454 124.6 49.5641 124.6C49.7027 124.6 49.8467 124.573 49.9961 124.52C50.1454 124.467 50.2867 124.395 50.4201 124.304C50.5587 124.208 50.6734 124.096 50.7641 123.968C50.8547 123.84 50.9107 123.707 50.9321 123.568ZM59.4491 120.832H59.9851L58.1931 125H57.7211L56.8491 122.928L55.9851 125H55.5131L53.7211 120.832H54.2491L55.7691 124.44L56.5371 122.56L55.8331 120.84H56.3211L56.8491 122.192L57.3851 120.84H57.8651L57.1691 122.56L57.9371 124.44L59.4491 120.832ZM60.5489 125V120.832H61.0929V125H60.5489ZM60.5489 119.96V119.16H61.0929V119.96H60.5489ZM62.1551 119.16H62.6991V124.056C62.6991 124.264 62.7365 124.4 62.8111 124.464C62.8858 124.528 62.9765 124.56 63.0831 124.56C63.1791 124.56 63.2751 124.549 63.3711 124.528C63.4671 124.507 63.5498 124.485 63.6191 124.464L63.7151 124.904C63.6138 124.947 63.4885 124.981 63.3391 125.008C63.1951 125.035 63.0698 125.048 62.9631 125.048C62.7178 125.048 62.5205 124.976 62.3711 124.832C62.2271 124.688 62.1551 124.491 62.1551 124.24V119.16ZM64.1748 119.16H64.7188V124.056C64.7188 124.264 64.7562 124.4 64.8308 124.464C64.9055 124.528 64.9962 124.56 65.1028 124.56C65.1988 124.56 65.2948 124.549 65.3908 124.528C65.4868 124.507 65.5695 124.485 65.6388 124.464L65.7348 124.904C65.6335 124.947 65.5082 124.981 65.3588 125.008C65.2148 125.035 65.0895 125.048 64.9828 125.048C64.7375 125.048 64.5402 124.976 64.3908 124.832C64.2468 124.688 64.1748 124.491 64.1748 124.24V119.16ZM69.8474 125.08C69.522 125.08 69.2207 124.997 68.9434 124.832C68.666 124.661 68.45 124.448 68.2954 124.192V125H67.8074V119.16H68.3514V121.704C68.538 121.421 68.762 121.195 69.0234 121.024C69.2847 120.848 69.5887 120.76 69.9354 120.76C70.2287 120.76 70.49 120.821 70.7194 120.944C70.954 121.067 71.154 121.232 71.3194 121.44C71.4847 121.643 71.61 121.875 71.6954 122.136C71.7807 122.392 71.8234 122.656 71.8234 122.928C71.8234 123.221 71.7727 123.496 71.6714 123.752C71.5754 124.008 71.4367 124.237 71.2554 124.44C71.074 124.637 70.8634 124.795 70.6234 124.912C70.3887 125.024 70.13 125.08 69.8474 125.08ZM69.7194 124.6C69.9434 124.6 70.1514 124.555 70.3434 124.464C70.5354 124.373 70.7007 124.248 70.8394 124.088C70.978 123.928 71.0847 123.749 71.1594 123.552C71.234 123.349 71.2714 123.141 71.2714 122.928C71.2714 122.635 71.2074 122.36 71.0794 122.104C70.9567 121.843 70.7834 121.635 70.5594 121.48C70.3407 121.32 70.082 121.24 69.7834 121.24C69.57 121.24 69.37 121.288 69.1834 121.384C69.002 121.48 68.8394 121.608 68.6954 121.768C68.5567 121.923 68.442 122.093 68.3514 122.28V123.576C68.3727 123.72 68.4287 123.856 68.5194 123.984C68.61 124.107 68.722 124.213 68.8554 124.304C68.994 124.395 69.138 124.467 69.2874 124.52C69.4367 124.573 69.5807 124.6 69.7194 124.6ZM74.3849 125.08C74.0862 125.08 73.8089 125.024 73.5529 124.912C73.2969 124.795 73.0756 124.637 72.8889 124.44C72.7022 124.237 72.5556 124.005 72.4489 123.744C72.3476 123.483 72.2969 123.203 72.2969 122.904C72.2969 122.515 72.3849 122.157 72.5609 121.832C72.7422 121.507 72.9902 121.248 73.3049 121.056C73.6196 120.859 73.9769 120.76 74.3769 120.76C74.7876 120.76 75.1449 120.859 75.4489 121.056C75.7582 121.253 76.0009 121.515 76.1769 121.84C76.3529 122.16 76.4409 122.512 76.4409 122.896C76.4409 122.939 76.4409 122.981 76.4409 123.024C76.4409 123.061 76.4382 123.091 76.4329 123.112H72.8649C72.8916 123.411 72.9742 123.677 73.1129 123.912C73.2569 124.141 73.4409 124.325 73.6649 124.464C73.8942 124.597 74.1422 124.664 74.4089 124.664C74.6809 124.664 74.9369 124.595 75.1769 124.456C75.4222 124.317 75.5929 124.136 75.6889 123.912L76.1609 124.04C76.0756 124.237 75.9449 124.416 75.7689 124.576C75.5929 124.736 75.3849 124.861 75.1449 124.952C74.9102 125.037 74.6569 125.08 74.3849 125.08ZM72.8489 122.72H75.9289C75.9076 122.416 75.8249 122.149 75.6809 121.92C75.5422 121.691 75.3582 121.512 75.1289 121.384C74.9049 121.251 74.6569 121.184 74.3849 121.184C74.1129 121.184 73.8649 121.251 73.6409 121.384C73.4169 121.512 73.2329 121.693 73.0889 121.928C72.9502 122.157 72.8702 122.421 72.8489 122.72ZM80.8073 125.08C80.5033 125.08 80.2233 125.024 79.9673 124.912C79.7166 124.795 79.4953 124.635 79.3033 124.432C79.1166 124.229 78.9699 123.997 78.8633 123.736C78.7619 123.475 78.7113 123.197 78.7113 122.904C78.7113 122.509 78.7993 122.149 78.9753 121.824C79.1513 121.499 79.3966 121.24 79.7113 121.048C80.0259 120.856 80.3886 120.76 80.7993 120.76C81.1886 120.76 81.5326 120.851 81.8313 121.032C82.1299 121.208 82.3513 121.448 82.4953 121.752L81.9673 121.92C81.8499 121.707 81.6846 121.541 81.4713 121.424C81.2633 121.301 81.0313 121.24 80.7753 121.24C80.4979 121.24 80.2446 121.312 80.0153 121.456C79.7859 121.6 79.6019 121.797 79.4633 122.048C79.3299 122.299 79.2633 122.584 79.2633 122.904C79.2633 123.219 79.3326 123.504 79.4713 123.76C79.6099 124.016 79.7939 124.221 80.0233 124.376C80.2526 124.525 80.5059 124.6 80.7833 124.6C80.9646 124.6 81.1379 124.568 81.3033 124.504C81.4739 124.44 81.6206 124.355 81.7433 124.248C81.8713 124.136 81.9566 124.016 81.9993 123.888L82.5353 124.048C82.4606 124.245 82.3353 124.424 82.1593 124.584C81.9886 124.739 81.7859 124.861 81.5513 124.952C81.3219 125.037 81.0739 125.08 80.8073 125.08ZM84.9668 125.08C84.6682 125.08 84.3908 125.024 84.1348 124.912C83.8842 124.795 83.6655 124.637 83.4788 124.44C83.2975 124.237 83.1562 124.008 83.0548 123.752C82.9535 123.491 82.9028 123.216 82.9028 122.928C82.9028 122.629 82.9535 122.352 83.0548 122.096C83.1562 121.835 83.3002 121.605 83.4868 121.408C83.6735 121.205 83.8922 121.048 84.1428 120.936C84.3988 120.819 84.6762 120.76 84.9748 120.76C85.2735 120.76 85.5482 120.819 85.7988 120.936C86.0495 121.048 86.2682 121.205 86.4548 121.408C86.6415 121.605 86.7855 121.835 86.8868 122.096C86.9882 122.352 87.0388 122.629 87.0388 122.928C87.0388 123.216 86.9882 123.491 86.8868 123.752C86.7855 124.008 86.6415 124.237 86.4548 124.44C86.2735 124.637 86.0548 124.795 85.7988 124.912C85.5482 125.024 85.2708 125.08 84.9668 125.08ZM83.4548 122.936C83.4548 123.245 83.5215 123.528 83.6548 123.784C83.7935 124.035 83.9775 124.235 84.2068 124.384C84.4362 124.528 84.6895 124.6 84.9668 124.6C85.2442 124.6 85.4975 124.525 85.7268 124.376C85.9562 124.227 86.1402 124.024 86.2788 123.768C86.4175 123.507 86.4868 123.224 86.4868 122.92C86.4868 122.611 86.4175 122.328 86.2788 122.072C86.1402 121.816 85.9562 121.613 85.7268 121.464C85.4975 121.315 85.2442 121.24 84.9668 121.24C84.6895 121.24 84.4362 121.317 84.2068 121.472C83.9828 121.627 83.8015 121.832 83.6628 122.088C83.5242 122.339 83.4548 122.621 83.4548 122.936ZM93.9886 125H93.4446V122.672C93.4446 122.187 93.3673 121.829 93.2126 121.6C93.058 121.371 92.8286 121.256 92.5246 121.256C92.21 121.256 91.9273 121.368 91.6766 121.592C91.4313 121.816 91.258 122.104 91.1566 122.456V125H90.6126V122.672C90.6126 122.181 90.538 121.824 90.3886 121.6C90.2393 121.371 90.01 121.256 89.7006 121.256C89.3913 121.256 89.1113 121.365 88.8606 121.584C88.61 121.803 88.434 122.091 88.3326 122.448V125H87.7886V120.832H88.2846V121.776C88.4606 121.451 88.6846 121.2 88.9566 121.024C89.234 120.848 89.5406 120.76 89.8766 120.76C90.2233 120.76 90.5033 120.859 90.7166 121.056C90.93 121.253 91.0606 121.512 91.1086 121.832C91.3006 121.48 91.53 121.213 91.7966 121.032C92.0686 120.851 92.3753 120.76 92.7166 120.76C92.9513 120.76 93.1486 120.803 93.3086 120.888C93.474 120.973 93.6046 121.096 93.7006 121.256C93.802 121.411 93.874 121.6 93.9166 121.824C93.9646 122.043 93.9886 122.288 93.9886 122.56V125ZM97.1082 125.08C96.7615 125.08 96.4495 124.989 96.1722 124.808C95.9002 124.627 95.6842 124.403 95.5242 124.136V126.704H94.9802V120.832H95.4682V121.64C95.6335 121.379 95.8549 121.168 96.1322 121.008C96.4095 120.843 96.7055 120.76 97.0202 120.76C97.3082 120.76 97.5722 120.821 97.8122 120.944C98.0522 121.061 98.2602 121.221 98.4362 121.424C98.6122 121.627 98.7482 121.859 98.8442 122.12C98.9455 122.376 98.9962 122.643 98.9962 122.92C98.9962 123.309 98.9162 123.669 98.7562 124C98.6015 124.325 98.3829 124.587 98.1002 124.784C97.8175 124.981 97.4869 125.08 97.1082 125.08ZM96.9562 124.6C97.1855 124.6 97.3909 124.555 97.5722 124.464C97.7535 124.368 97.9082 124.24 98.0362 124.08C98.1695 123.92 98.2709 123.741 98.3402 123.544C98.4095 123.341 98.4442 123.133 98.4442 122.92C98.4442 122.696 98.4042 122.483 98.3242 122.28C98.2495 122.077 98.1402 121.899 97.9962 121.744C97.8522 121.589 97.6869 121.467 97.5002 121.376C97.3135 121.285 97.1109 121.24 96.8922 121.24C96.7535 121.24 96.6095 121.267 96.4602 121.32C96.3109 121.373 96.1669 121.451 96.0282 121.552C95.8949 121.648 95.7829 121.757 95.6922 121.88C95.6015 122.003 95.5455 122.133 95.5242 122.272V123.552C95.6095 123.749 95.7242 123.928 95.8682 124.088C96.0122 124.243 96.1775 124.368 96.3642 124.464C96.5562 124.555 96.7535 124.6 96.9562 124.6ZM99.7817 119.16H100.326V124.056C100.326 124.264 100.363 124.4 100.438 124.464C100.512 124.528 100.603 124.56 100.71 124.56C100.806 124.56 100.902 124.549 100.998 124.528C101.094 124.507 101.176 124.485 101.246 124.464L101.342 124.904C101.24 124.947 101.115 124.981 100.966 125.008C100.822 125.035 100.696 125.048 100.59 125.048C100.344 125.048 100.147 124.976 99.9977 124.832C99.8537 124.688 99.7817 124.491 99.7817 124.24V119.16ZM103.577 125.08C103.279 125.08 103.001 125.024 102.745 124.912C102.489 124.795 102.268 124.637 102.081 124.44C101.895 124.237 101.748 124.005 101.641 123.744C101.54 123.483 101.489 123.203 101.489 122.904C101.489 122.515 101.577 122.157 101.753 121.832C101.935 121.507 102.183 121.248 102.497 121.056C102.812 120.859 103.169 120.76 103.569 120.76C103.98 120.76 104.337 120.859 104.641 121.056C104.951 121.253 105.193 121.515 105.369 121.84C105.545 122.16 105.633 122.512 105.633 122.896C105.633 122.939 105.633 122.981 105.633 123.024C105.633 123.061 105.631 123.091 105.625 123.112H102.057C102.084 123.411 102.167 123.677 102.305 123.912C102.449 124.141 102.633 124.325 102.857 124.464C103.087 124.597 103.335 124.664 103.601 124.664C103.873 124.664 104.129 124.595 104.369 124.456C104.615 124.317 104.785 124.136 104.881 123.912L105.353 124.04C105.268 124.237 105.137 124.416 104.961 124.576C104.785 124.736 104.577 124.861 104.337 124.952C104.103 125.037 103.849 125.08 103.577 125.08ZM102.041 122.72H105.121C105.1 122.416 105.017 122.149 104.873 121.92C104.735 121.691 104.551 121.512 104.321 121.384C104.097 121.251 103.849 121.184 103.577 121.184C103.305 121.184 103.057 121.251 102.833 121.384C102.609 121.512 102.425 121.693 102.281 121.928C102.143 122.157 102.063 122.421 102.041 122.72ZM108.274 124.8C108.231 124.816 108.164 124.845 108.074 124.888C107.983 124.931 107.874 124.968 107.746 125C107.618 125.032 107.479 125.048 107.33 125.048C107.175 125.048 107.028 125.019 106.89 124.96C106.756 124.901 106.65 124.813 106.57 124.696C106.49 124.573 106.45 124.424 106.45 124.248V121.264H105.874V120.832H106.45V119.424H106.994V120.832H107.954V121.264H106.994V124.096C107.004 124.245 107.058 124.357 107.154 124.432C107.255 124.507 107.37 124.544 107.498 124.544C107.647 124.544 107.783 124.52 107.906 124.472C108.028 124.419 108.103 124.381 108.13 124.36L108.274 124.8ZM110.523 125.08C110.224 125.08 109.947 125.024 109.691 124.912C109.435 124.795 109.214 124.637 109.027 124.44C108.84 124.237 108.694 124.005 108.587 123.744C108.486 123.483 108.435 123.203 108.435 122.904C108.435 122.515 108.523 122.157 108.699 121.832C108.88 121.507 109.128 121.248 109.443 121.056C109.758 120.859 110.115 120.76 110.515 120.76C110.926 120.76 111.283 120.859 111.587 121.056C111.896 121.253 112.139 121.515 112.315 121.84C112.491 122.16 112.579 122.512 112.579 122.896C112.579 122.939 112.579 122.981 112.579 123.024C112.579 123.061 112.576 123.091 112.571 123.112H109.003C109.03 123.411 109.112 123.677 109.251 123.912C109.395 124.141 109.579 124.325 109.803 124.464C110.032 124.597 110.28 124.664 110.547 124.664C110.819 124.664 111.075 124.595 111.315 124.456C111.56 124.317 111.731 124.136 111.827 123.912L112.299 124.04C112.214 124.237 112.083 124.416 111.907 124.576C111.731 124.736 111.523 124.861 111.283 124.952C111.048 125.037 110.795 125.08 110.523 125.08ZM108.987 122.72H112.067C112.046 122.416 111.963 122.149 111.819 121.92C111.68 121.691 111.496 121.512 111.267 121.384C111.043 121.251 110.795 121.184 110.523 121.184C110.251 121.184 110.003 121.251 109.779 121.384C109.555 121.512 109.371 121.693 109.227 121.928C109.088 122.157 109.008 122.421 108.987 122.72ZM112.978 122.928C112.978 122.533 113.058 122.173 113.218 121.848C113.384 121.517 113.61 121.253 113.898 121.056C114.186 120.859 114.514 120.76 114.882 120.76C115.229 120.76 115.538 120.853 115.81 121.04C116.088 121.221 116.304 121.443 116.458 121.704V119.16H117.002V124.344C117.002 124.419 117.018 124.475 117.05 124.512C117.082 124.544 117.13 124.563 117.194 124.568V125C117.088 125.016 117.005 125.021 116.946 125.016C116.834 125.011 116.736 124.965 116.65 124.88C116.565 124.795 116.522 124.701 116.522 124.6V124.192C116.357 124.464 116.133 124.68 115.85 124.84C115.568 125 115.274 125.08 114.97 125.08C114.682 125.08 114.416 125.021 114.17 124.904C113.93 124.787 113.72 124.627 113.538 124.424C113.362 124.221 113.224 123.992 113.122 123.736C113.026 123.475 112.978 123.205 112.978 122.928ZM116.458 123.568V122.28C116.389 122.088 116.277 121.915 116.122 121.76C115.968 121.6 115.792 121.475 115.594 121.384C115.402 121.288 115.21 121.24 115.018 121.24C114.794 121.24 114.592 121.288 114.41 121.384C114.229 121.475 114.072 121.6 113.938 121.76C113.81 121.92 113.712 122.101 113.642 122.304C113.573 122.507 113.538 122.715 113.538 122.928C113.538 123.152 113.576 123.365 113.65 123.568C113.73 123.771 113.842 123.952 113.986 124.112C114.13 124.267 114.296 124.387 114.482 124.472C114.669 124.557 114.872 124.6 115.09 124.6C115.229 124.6 115.373 124.573 115.522 124.52C115.672 124.467 115.813 124.395 115.946 124.304C116.085 124.208 116.2 124.096 116.29 123.968C116.381 123.84 116.437 123.707 116.458 123.568ZM121.322 125.08C120.981 125.08 120.663 125.024 120.37 124.912C120.077 124.8 119.823 124.629 119.61 124.4L119.834 124.016C120.069 124.235 120.303 124.395 120.538 124.496C120.778 124.592 121.031 124.64 121.298 124.64C121.623 124.64 121.887 124.576 122.09 124.448C122.293 124.315 122.394 124.125 122.394 123.88C122.394 123.715 122.343 123.589 122.242 123.504C122.146 123.413 122.005 123.341 121.818 123.288C121.637 123.229 121.418 123.168 121.162 123.104C120.874 123.024 120.631 122.941 120.434 122.856C120.242 122.765 120.095 122.653 119.994 122.52C119.898 122.381 119.85 122.203 119.85 121.984C119.85 121.712 119.917 121.488 120.05 121.312C120.189 121.131 120.375 120.995 120.61 120.904C120.85 120.808 121.117 120.76 121.41 120.76C121.73 120.76 122.013 120.811 122.258 120.912C122.503 121.013 122.703 121.155 122.858 121.336L122.594 121.704C122.445 121.533 122.266 121.408 122.058 121.328C121.855 121.243 121.629 121.2 121.378 121.2C121.207 121.2 121.045 121.224 120.89 121.272C120.735 121.315 120.607 121.389 120.506 121.496C120.41 121.597 120.362 121.739 120.362 121.92C120.362 122.069 120.399 122.187 120.474 122.272C120.549 122.352 120.661 122.421 120.81 122.48C120.959 122.533 121.143 122.592 121.362 122.656C121.677 122.741 121.951 122.829 122.186 122.92C122.421 123.005 122.602 123.117 122.73 123.256C122.858 123.395 122.922 123.589 122.922 123.84C122.922 124.229 122.775 124.533 122.482 124.752C122.189 124.971 121.802 125.08 121.322 125.08ZM125.437 125.08C125.138 125.08 124.861 125.024 124.605 124.912C124.354 124.795 124.136 124.637 123.949 124.44C123.768 124.237 123.626 124.008 123.525 123.752C123.424 123.491 123.373 123.216 123.373 122.928C123.373 122.629 123.424 122.352 123.525 122.096C123.626 121.835 123.77 121.605 123.957 121.408C124.144 121.205 124.362 121.048 124.613 120.936C124.869 120.819 125.146 120.76 125.445 120.76C125.744 120.76 126.018 120.819 126.269 120.936C126.52 121.048 126.738 121.205 126.925 121.408C127.112 121.605 127.256 121.835 127.357 122.096C127.458 122.352 127.509 122.629 127.509 122.928C127.509 123.216 127.458 123.491 127.357 123.752C127.256 124.008 127.112 124.237 126.925 124.44C126.744 124.637 126.525 124.795 126.269 124.912C126.018 125.024 125.741 125.08 125.437 125.08ZM123.925 122.936C123.925 123.245 123.992 123.528 124.125 123.784C124.264 124.035 124.448 124.235 124.677 124.384C124.906 124.528 125.16 124.6 125.437 124.6C125.714 124.6 125.968 124.525 126.197 124.376C126.426 124.227 126.61 124.024 126.749 123.768C126.888 123.507 126.957 123.224 126.957 122.92C126.957 122.611 126.888 122.328 126.749 122.072C126.61 121.816 126.426 121.613 126.197 121.464C125.968 121.315 125.714 121.24 125.437 121.24C125.16 121.24 124.906 121.317 124.677 121.472C124.453 121.627 124.272 121.832 124.133 122.088C123.994 122.339 123.925 122.621 123.925 122.936ZM130.035 125.08C129.736 125.08 129.459 125.024 129.203 124.912C128.952 124.795 128.734 124.637 128.547 124.44C128.366 124.237 128.224 124.008 128.123 123.752C128.022 123.491 127.971 123.216 127.971 122.928C127.971 122.629 128.022 122.352 128.123 122.096C128.224 121.835 128.368 121.605 128.555 121.408C128.742 121.205 128.96 121.048 129.211 120.936C129.467 120.819 129.744 120.76 130.043 120.76C130.342 120.76 130.616 120.819 130.867 120.936C131.118 121.048 131.336 121.205 131.523 121.408C131.71 121.605 131.854 121.835 131.955 122.096C132.056 122.352 132.107 122.629 132.107 122.928C132.107 123.216 132.056 123.491 131.955 123.752C131.854 124.008 131.71 124.237 131.523 124.44C131.342 124.637 131.123 124.795 130.867 124.912C130.616 125.024 130.339 125.08 130.035 125.08ZM128.523 122.936C128.523 123.245 128.59 123.528 128.723 123.784C128.862 124.035 129.046 124.235 129.275 124.384C129.504 124.528 129.758 124.6 130.035 124.6C130.312 124.6 130.566 124.525 130.795 124.376C131.024 124.227 131.208 124.024 131.347 123.768C131.486 123.507 131.555 123.224 131.555 122.92C131.555 122.611 131.486 122.328 131.347 122.072C131.208 121.816 131.024 121.613 130.795 121.464C130.566 121.315 130.312 121.24 130.035 121.24C129.758 121.24 129.504 121.317 129.275 121.472C129.051 121.627 128.87 121.832 128.731 122.088C128.592 122.339 128.523 122.621 128.523 122.936ZM136.361 125H135.817V122.672C135.817 122.181 135.745 121.824 135.601 121.6C135.457 121.371 135.23 121.256 134.921 121.256C134.707 121.256 134.497 121.309 134.289 121.416C134.081 121.517 133.897 121.659 133.737 121.84C133.582 122.016 133.47 122.219 133.401 122.448V125H132.857V120.832H133.353V121.776C133.465 121.573 133.611 121.397 133.793 121.248C133.974 121.093 134.179 120.973 134.409 120.888C134.638 120.803 134.875 120.76 135.121 120.76C135.35 120.76 135.545 120.803 135.705 120.888C135.865 120.973 135.993 121.096 136.089 121.256C136.185 121.411 136.254 121.6 136.297 121.824C136.339 122.043 136.361 122.288 136.361 122.56V125ZM137.281 125V124.216H137.753V125H137.281Z" fill="black"/>
<defs>
<filter id="filter0_d_306_40" x="69.1113" y="44.0352" width="44.8066" height="45.2344" filterUnits="userSpaceOnUse" color-interpolation-filters="sRGB">
<feFlood flood-opacity="0" result="BackgroundImageFix"/>
<feColorMatrix in="SourceAlpha" type="matrix" values="0 0 0 0 0 0 0 0 0 0 0 0 0 0 0 0 0 0 127 0" result="hardAlpha"/>
<feOffset/>
<feGaussianBlur stdDeviation="5"/>
<feComposite in2="hardAlpha" operator="out"/>
<feColorMatrix type="matrix" values="0 0 0 0 0 0 0 0 0 0 0 0 0 0 0 0 0 0 0.5 0"/>
<feBlend mode="normal" in2="BackgroundImageFix" result="effect1_dropShadow_306_40"/>
<feBlend mode="normal" in="SourceGraphic" in2="effect1_dropShadow_306_40" result="shape"/>
</filter>
</defs>
</svg>
