<svg width="474" height="470" viewBox="0 0 474 470" fill="none" xmlns="http://www.w3.org/2000/svg">
<rect width="474" height="470" fill="white"/>
<g filter="url(#filter0_d_306_40)">
<path d="M264.974 142.912L237.083 189.542C236.697 190.187 235.764 190.191 235.372 189.549L224.937 172.457C224.742 172.139 224.741 171.739 224.934 171.42L253.733 123.632C254.135 122.964 255.114 122.994 255.476 123.686L265.003 141.936C265.163 142.244 265.153 142.614 264.974 142.912Z" fill="black"/>
<path d="M249.986 123.645L237.9 142.424C237.716 142.71 237.399 142.883 237.059 142.883L213.814 142.883C213.509 142.883 213.221 142.744 213.032 142.506L198.069 123.716C197.547 123.061 198.014 122.093 198.851 122.093L249.145 122.104C249.937 122.104 250.414 122.98 249.986 123.645Z" fill="black"/>
</g>
<path d="M122.642 225.667C122.642 224.107 122.918 222.583 123.47 221.095C124.046 219.583 124.874 218.215 125.954 216.991C127.034 215.743 128.354 214.759 129.914 214.039C131.474 213.295 133.25 212.923 135.242 212.923C137.594 212.923 139.622 213.439 141.326 214.471C143.054 215.503 144.338 216.847 145.178 218.503L141.362 221.131C140.93 220.171 140.366 219.415 139.67 218.863C138.974 218.287 138.23 217.891 137.438 217.675C136.646 217.435 135.866 217.315 135.098 217.315C133.85 217.315 132.758 217.567 131.822 218.071C130.91 218.575 130.142 219.235 129.518 220.051C128.894 220.867 128.426 221.779 128.114 222.787C127.826 223.795 127.682 224.803 127.682 225.811C127.682 226.939 127.862 228.031 128.222 229.087C128.582 230.119 129.086 231.043 129.734 231.859C130.406 232.651 131.198 233.287 132.11 233.767C133.046 234.223 134.066 234.451 135.17 234.451C135.962 234.451 136.766 234.319 137.582 234.055C138.398 233.791 139.154 233.371 139.85 232.795C140.546 232.219 141.086 231.475 141.47 230.563L145.538 232.903C145.034 234.175 144.206 235.255 143.054 236.143C141.926 237.031 140.654 237.703 139.238 238.159C137.822 238.615 136.418 238.843 135.026 238.843C133.202 238.843 131.534 238.471 130.022 237.727C128.51 236.959 127.202 235.951 126.098 234.703C125.018 233.431 124.166 232.015 123.542 230.455C122.942 228.871 122.642 227.275 122.642 225.667ZM156.324 238.987C154.788 238.987 153.408 238.735 152.184 238.231C150.96 237.703 149.916 236.983 149.052 236.071C148.212 235.159 147.564 234.115 147.108 232.939C146.652 231.763 146.424 230.527 146.424 229.231C146.424 227.911 146.652 226.663 147.108 225.487C147.564 224.311 148.212 223.267 149.052 222.355C149.916 221.443 150.96 220.735 152.184 220.231C153.408 219.703 154.788 219.439 156.324 219.439C157.86 219.439 159.228 219.703 160.428 220.231C161.652 220.735 162.696 221.443 163.56 222.355C164.424 223.267 165.072 224.311 165.504 225.487C165.96 226.663 166.188 227.911 166.188 229.231C166.188 230.527 165.96 231.763 165.504 232.939C165.072 234.115 164.424 235.159 163.56 236.071C162.72 236.983 161.688 237.703 160.464 238.231C159.24 238.735 157.86 238.987 156.324 238.987ZM151.392 229.231C151.392 230.335 151.608 231.319 152.04 232.183C152.472 233.023 153.06 233.683 153.804 234.163C154.548 234.643 155.388 234.883 156.324 234.883C157.236 234.883 158.064 234.643 158.808 234.163C159.552 233.659 160.14 232.987 160.572 232.147C161.028 231.283 161.256 230.299 161.256 229.195C161.256 228.115 161.028 227.143 160.572 226.279C160.14 225.415 159.552 224.743 158.808 224.263C158.064 223.783 157.236 223.543 156.324 223.543C155.388 223.543 154.548 223.795 153.804 224.299C153.06 224.779 152.472 225.451 152.04 226.315C151.608 227.155 151.392 228.127 151.392 229.231ZM198.028 238.627H193.204V228.043C193.204 226.555 192.94 225.463 192.412 224.767C191.908 224.047 191.2 223.687 190.288 223.687C189.352 223.687 188.452 224.059 187.588 224.803C186.748 225.523 186.148 226.471 185.788 227.647V238.627H180.964V228.043C180.964 226.531 180.7 225.427 180.172 224.731C179.668 224.035 178.96 223.687 178.048 223.687C177.112 223.687 176.212 224.047 175.348 224.767C174.508 225.487 173.908 226.435 173.548 227.611V238.627H168.724V219.763H173.08V223.255C173.8 222.031 174.76 221.095 175.96 220.447C177.16 219.775 178.54 219.439 180.1 219.439C181.66 219.439 182.872 219.823 183.736 220.591C184.624 221.359 185.188 222.307 185.428 223.435C186.196 222.139 187.168 221.155 188.344 220.483C189.544 219.787 190.888 219.439 192.376 219.439C193.552 219.439 194.5 219.655 195.22 220.087C195.964 220.495 196.54 221.059 196.948 221.779C197.356 222.475 197.632 223.267 197.776 224.155C197.944 225.043 198.028 225.943 198.028 226.855V238.627ZM201.508 238.627V219.763H206.332V238.627H201.508ZM201.508 217.135V212.347H206.332V217.135H201.508ZM227.496 238.627H222.672V228.043C222.672 226.531 222.408 225.427 221.88 224.731C221.352 224.035 220.62 223.687 219.684 223.687C219.036 223.687 218.376 223.855 217.704 224.191C217.056 224.527 216.468 224.995 215.94 225.595C215.412 226.171 215.028 226.843 214.788 227.611V238.627H209.964V219.763H214.32V223.255C214.8 222.439 215.412 221.755 216.156 221.203C216.9 220.627 217.752 220.195 218.712 219.907C219.696 219.595 220.728 219.439 221.808 219.439C222.984 219.439 223.944 219.655 224.688 220.087C225.456 220.495 226.032 221.059 226.416 221.779C226.824 222.475 227.1 223.267 227.244 224.155C227.412 225.043 227.496 225.943 227.496 226.855V238.627ZM238.35 238.735C237.102 238.735 235.95 238.495 234.894 238.015C233.862 237.511 232.962 236.815 232.194 235.927C231.45 235.039 230.874 234.019 230.466 232.867C230.058 231.715 229.854 230.491 229.854 229.195C229.854 227.827 230.07 226.555 230.502 225.379C230.934 224.203 231.534 223.171 232.302 222.283C233.094 221.371 234.018 220.675 235.074 220.195C236.154 219.691 237.342 219.439 238.638 219.439C240.102 219.439 241.386 219.775 242.49 220.447C243.594 221.095 244.506 221.971 245.226 223.075V219.763H249.438V237.727C249.438 239.599 248.982 241.195 248.07 242.515C247.182 243.859 245.946 244.879 244.362 245.575C242.778 246.295 240.978 246.655 238.962 246.655C236.922 246.655 235.194 246.307 233.778 245.611C232.362 244.939 231.15 243.979 230.142 242.731L232.77 240.175C233.49 241.063 234.39 241.759 235.47 242.263C236.574 242.767 237.738 243.019 238.962 243.019C239.994 243.019 240.93 242.827 241.77 242.443C242.634 242.083 243.318 241.507 243.822 240.715C244.35 239.947 244.614 238.951 244.614 237.727V235.351C243.99 236.431 243.102 237.271 241.95 237.871C240.822 238.447 239.622 238.735 238.35 238.735ZM239.97 234.883C240.498 234.883 241.002 234.799 241.482 234.631C241.962 234.463 242.406 234.235 242.814 233.947C243.222 233.659 243.582 233.323 243.894 232.939C244.206 232.531 244.446 232.123 244.614 231.715V227.215C244.326 226.471 243.918 225.823 243.39 225.271C242.886 224.719 242.31 224.299 241.662 224.011C241.038 223.699 240.378 223.543 239.682 223.543C238.938 223.543 238.266 223.699 237.666 224.011C237.066 224.323 236.55 224.767 236.118 225.343C235.686 225.895 235.35 226.519 235.11 227.215C234.894 227.887 234.786 228.595 234.786 229.339C234.786 230.107 234.918 230.827 235.182 231.499C235.446 232.171 235.806 232.759 236.262 233.263C236.742 233.767 237.294 234.163 237.918 234.451C238.566 234.739 239.25 234.883 239.97 234.883ZM276.691 219.763C276.523 219.595 276.211 219.367 275.755 219.079C275.323 218.791 274.783 218.515 274.135 218.251C273.511 217.987 272.827 217.759 272.083 217.567C271.339 217.351 270.583 217.243 269.815 217.243C268.471 217.243 267.451 217.495 266.755 217.999C266.083 218.503 265.747 219.211 265.747 220.123C265.747 220.819 265.963 221.371 266.395 221.779C266.827 222.187 267.475 222.535 268.339 222.823C269.203 223.111 270.283 223.423 271.579 223.759C273.259 224.167 274.711 224.671 275.935 225.271C277.183 225.847 278.131 226.615 278.779 227.575C279.451 228.511 279.787 229.759 279.787 231.319C279.787 232.687 279.535 233.863 279.031 234.847C278.527 235.807 277.831 236.587 276.943 237.187C276.055 237.787 275.047 238.231 273.919 238.519C272.791 238.783 271.591 238.915 270.319 238.915C269.047 238.915 267.775 238.783 266.503 238.519C265.231 238.255 264.007 237.883 262.831 237.403C261.655 236.899 260.575 236.299 259.591 235.603L261.787 231.319C262.003 231.535 262.387 231.823 262.939 232.183C263.491 232.519 264.163 232.867 264.955 233.227C265.747 233.563 266.611 233.851 267.547 234.091C268.483 234.331 269.431 234.451 270.391 234.451C271.735 234.451 272.755 234.223 273.451 233.767C274.147 233.311 274.495 232.663 274.495 231.823C274.495 231.055 274.219 230.455 273.667 230.023C273.115 229.591 272.347 229.219 271.363 228.907C270.379 228.571 269.215 228.211 267.871 227.827C266.263 227.371 264.919 226.867 263.839 226.315C262.759 225.739 261.955 225.019 261.427 224.155C260.899 223.291 260.635 222.211 260.635 220.915C260.635 219.163 261.043 217.699 261.859 216.523C262.699 215.323 263.827 214.423 265.243 213.823C266.659 213.199 268.231 212.887 269.959 212.887C271.159 212.887 272.287 213.019 273.343 213.283C274.423 213.547 275.431 213.895 276.367 214.327C277.303 214.759 278.143 215.227 278.887 215.731L276.691 219.763ZM291.065 238.987C289.529 238.987 288.149 238.735 286.925 238.231C285.701 237.703 284.657 236.983 283.793 236.071C282.953 235.159 282.305 234.115 281.849 232.939C281.393 231.763 281.165 230.527 281.165 229.231C281.165 227.911 281.393 226.663 281.849 225.487C282.305 224.311 282.953 223.267 283.793 222.355C284.657 221.443 285.701 220.735 286.925 220.231C288.149 219.703 289.529 219.439 291.065 219.439C292.601 219.439 293.969 219.703 295.169 220.231C296.393 220.735 297.437 221.443 298.301 222.355C299.165 223.267 299.813 224.311 300.245 225.487C300.701 226.663 300.929 227.911 300.929 229.231C300.929 230.527 300.701 231.763 300.245 232.939C299.813 234.115 299.165 235.159 298.301 236.071C297.461 236.983 296.429 237.703 295.205 238.231C293.981 238.735 292.601 238.987 291.065 238.987ZM286.133 229.231C286.133 230.335 286.349 231.319 286.781 232.183C287.213 233.023 287.801 233.683 288.545 234.163C289.289 234.643 290.129 234.883 291.065 234.883C291.977 234.883 292.805 234.643 293.549 234.163C294.293 233.659 294.881 232.987 295.313 232.147C295.769 231.283 295.997 230.299 295.997 229.195C295.997 228.115 295.769 227.143 295.313 226.279C294.881 225.415 294.293 224.743 293.549 224.263C292.805 223.783 291.977 223.543 291.065 223.543C290.129 223.543 289.289 223.795 288.545 224.299C287.801 224.779 287.213 225.451 286.781 226.315C286.349 227.155 286.133 228.127 286.133 229.231ZM312.177 238.987C310.641 238.987 309.261 238.735 308.037 238.231C306.813 237.703 305.769 236.983 304.905 236.071C304.065 235.159 303.417 234.115 302.961 232.939C302.505 231.763 302.277 230.527 302.277 229.231C302.277 227.911 302.505 226.663 302.961 225.487C303.417 224.311 304.065 223.267 304.905 222.355C305.769 221.443 306.813 220.735 308.037 220.231C309.261 219.703 310.641 219.439 312.177 219.439C313.713 219.439 315.081 219.703 316.281 220.231C317.505 220.735 318.549 221.443 319.413 222.355C320.277 223.267 320.925 224.311 321.357 225.487C321.813 226.663 322.041 227.911 322.041 229.231C322.041 230.527 321.813 231.763 321.357 232.939C320.925 234.115 320.277 235.159 319.413 236.071C318.573 236.983 317.541 237.703 316.317 238.231C315.093 238.735 313.713 238.987 312.177 238.987ZM307.245 229.231C307.245 230.335 307.461 231.319 307.893 232.183C308.325 233.023 308.913 233.683 309.657 234.163C310.401 234.643 311.241 234.883 312.177 234.883C313.089 234.883 313.917 234.643 314.661 234.163C315.405 233.659 315.993 232.987 316.425 232.147C316.881 231.283 317.109 230.299 317.109 229.195C317.109 228.115 316.881 227.143 316.425 226.279C315.993 225.415 315.405 224.743 314.661 224.263C313.917 223.783 313.089 223.543 312.177 223.543C311.241 223.543 310.401 223.795 309.657 224.299C308.913 224.779 308.325 225.451 307.893 226.315C307.461 227.155 307.245 228.127 307.245 229.231ZM342.109 238.627H337.285V228.043C337.285 226.531 337.021 225.427 336.493 224.731C335.965 224.035 335.233 223.687 334.297 223.687C333.649 223.687 332.989 223.855 332.317 224.191C331.669 224.527 331.081 224.995 330.553 225.595C330.025 226.171 329.641 226.843 329.401 227.611V238.627H324.577V219.763H328.933V223.255C329.413 222.439 330.025 221.755 330.769 221.203C331.513 220.627 332.365 220.195 333.325 219.907C334.309 219.595 335.341 219.439 336.421 219.439C337.597 219.439 338.557 219.655 339.301 220.087C340.069 220.495 340.645 221.059 341.029 221.779C341.437 222.475 341.713 223.267 341.857 224.155C342.025 225.043 342.109 225.943 342.109 226.855V238.627ZM345.476 238.627V233.443H349.436V238.627H345.476Z" fill="black"/>
<path d="M120.077 261.017H121.199L122.899 265.301L124.616 261.017H125.755L123.647 266.168L125.959 271.625L130.328 260.932H131.62L126.503 273.002H125.449L122.916 267.035L120.366 273.002H119.329L114.229 260.932H115.504L119.89 271.625L122.185 266.168L120.077 261.017ZM135.369 273.172C134.734 273.172 134.145 273.053 133.601 272.815C133.068 272.566 132.603 272.231 132.207 271.812C131.821 271.381 131.521 270.894 131.306 270.35C131.09 269.795 130.983 269.211 130.983 268.599C130.983 267.964 131.09 267.375 131.306 266.831C131.521 266.276 131.827 265.788 132.224 265.369C132.62 264.938 133.085 264.604 133.618 264.366C134.162 264.117 134.751 263.992 135.386 263.992C136.02 263.992 136.604 264.117 137.137 264.366C137.669 264.604 138.134 264.938 138.531 265.369C138.927 265.788 139.233 266.276 139.449 266.831C139.664 267.375 139.772 267.964 139.772 268.599C139.772 269.211 139.664 269.795 139.449 270.35C139.233 270.894 138.927 271.381 138.531 271.812C138.145 272.231 137.681 272.566 137.137 272.815C136.604 273.053 136.015 273.172 135.369 273.172ZM132.156 268.616C132.156 269.273 132.297 269.874 132.581 270.418C132.875 270.951 133.266 271.376 133.754 271.693C134.241 271.999 134.779 272.152 135.369 272.152C135.958 272.152 136.496 271.993 136.984 271.676C137.471 271.359 137.862 270.928 138.157 270.384C138.451 269.829 138.599 269.228 138.599 268.582C138.599 267.925 138.451 267.324 138.157 266.78C137.862 266.236 137.471 265.805 136.984 265.488C136.496 265.171 135.958 265.012 135.369 265.012C134.779 265.012 134.241 265.176 133.754 265.505C133.278 265.834 132.892 266.27 132.598 266.814C132.303 267.347 132.156 267.947 132.156 268.616ZM145.785 265.165C145.014 265.188 144.334 265.403 143.745 265.811C143.167 266.219 142.759 266.78 142.521 267.494V273.002H141.365V264.145H142.453V266.27C142.759 265.647 143.161 265.142 143.66 264.757C144.17 264.372 144.708 264.156 145.275 264.111C145.388 264.1 145.485 264.094 145.564 264.094C145.655 264.094 145.728 264.1 145.785 264.111V265.165ZM153.309 273.002L150.028 268.463L148.141 270.231V273.002H146.985V260.592H148.141V268.99L153.156 264.162H154.431L150.81 267.783L154.567 273.002H153.309ZM163.427 273.172C162.792 273.172 162.203 273.053 161.659 272.815C161.126 272.566 160.661 272.231 160.265 271.812C159.879 271.381 159.579 270.894 159.364 270.35C159.148 269.795 159.041 269.211 159.041 268.599C159.041 267.964 159.148 267.375 159.364 266.831C159.579 266.276 159.885 265.788 160.282 265.369C160.678 264.938 161.143 264.604 161.676 264.366C162.22 264.117 162.809 263.992 163.444 263.992C164.078 263.992 164.662 264.117 165.195 264.366C165.727 264.604 166.192 264.938 166.589 265.369C166.985 265.788 167.291 266.276 167.507 266.831C167.722 267.375 167.83 267.964 167.83 268.599C167.83 269.211 167.722 269.795 167.507 270.35C167.291 270.894 166.985 271.381 166.589 271.812C166.203 272.231 165.739 272.566 165.195 272.815C164.662 273.053 164.073 273.172 163.427 273.172ZM160.214 268.616C160.214 269.273 160.355 269.874 160.639 270.418C160.933 270.951 161.324 271.376 161.812 271.693C162.299 271.999 162.837 272.152 163.427 272.152C164.016 272.152 164.554 271.993 165.042 271.676C165.529 271.359 165.92 270.928 166.215 270.384C166.509 269.829 166.657 269.228 166.657 268.582C166.657 267.925 166.509 267.324 166.215 266.78C165.92 266.236 165.529 265.805 165.042 265.488C164.554 265.171 164.016 265.012 163.427 265.012C162.837 265.012 162.299 265.176 161.812 265.505C161.336 265.834 160.95 266.27 160.656 266.814C160.361 267.347 160.214 267.947 160.214 268.616ZM176.869 273.002H175.713V268.055C175.713 267.012 175.56 266.253 175.254 265.777C174.948 265.29 174.466 265.046 173.809 265.046C173.356 265.046 172.908 265.159 172.466 265.386C172.024 265.601 171.633 265.902 171.293 266.287C170.964 266.661 170.726 267.092 170.579 267.579V273.002H169.423V264.145H170.477V266.151C170.715 265.72 171.027 265.346 171.412 265.029C171.797 264.7 172.234 264.445 172.721 264.264C173.208 264.083 173.713 263.992 174.234 263.992C174.721 263.992 175.135 264.083 175.475 264.264C175.815 264.445 176.087 264.706 176.291 265.046C176.495 265.375 176.642 265.777 176.733 266.253C176.824 266.718 176.869 267.239 176.869 267.817V273.002ZM187.237 272.577C187.147 272.611 187.005 272.673 186.812 272.764C186.62 272.855 186.387 272.934 186.115 273.002C185.843 273.07 185.549 273.104 185.231 273.104C184.903 273.104 184.591 273.042 184.296 272.917C184.013 272.792 183.786 272.605 183.616 272.356C183.446 272.095 183.361 271.778 183.361 271.404V265.063H182.137V264.145H183.361V261.153H184.517V264.145H186.557V265.063H184.517V271.081C184.54 271.398 184.653 271.636 184.857 271.795C185.073 271.954 185.316 272.033 185.588 272.033C185.906 272.033 186.195 271.982 186.455 271.88C186.716 271.767 186.875 271.687 186.931 271.642L187.237 272.577ZM195.788 273.002H194.632V268.055C194.632 267.058 194.456 266.31 194.105 265.811C193.753 265.301 193.249 265.046 192.592 265.046C192.161 265.046 191.73 265.159 191.3 265.386C190.88 265.601 190.506 265.902 190.178 266.287C189.86 266.661 189.634 267.092 189.498 267.579V273.002H188.342V260.592H189.498V266.151C189.849 265.494 190.336 264.972 190.96 264.587C191.594 264.19 192.269 263.992 192.983 263.992C193.493 263.992 193.923 264.083 194.275 264.264C194.637 264.445 194.926 264.712 195.142 265.063C195.368 265.403 195.533 265.805 195.635 266.27C195.737 266.723 195.788 267.239 195.788 267.817V273.002ZM197.913 273.002V264.145H199.069V273.002H197.913ZM197.913 262.292V260.592H199.069V262.292H197.913ZM204.182 273.172C203.456 273.172 202.782 273.053 202.159 272.815C201.535 272.577 200.997 272.214 200.544 271.727L201.02 270.911C201.518 271.376 202.017 271.716 202.516 271.931C203.026 272.135 203.564 272.237 204.131 272.237C204.822 272.237 205.383 272.101 205.814 271.829C206.244 271.546 206.46 271.143 206.46 270.622C206.46 270.271 206.352 270.004 206.137 269.823C205.933 269.63 205.632 269.477 205.236 269.364C204.85 269.239 204.386 269.109 203.842 268.973C203.23 268.803 202.714 268.627 202.295 268.446C201.887 268.253 201.575 268.015 201.36 267.732C201.156 267.437 201.054 267.058 201.054 266.593C201.054 266.015 201.195 265.539 201.479 265.165C201.773 264.78 202.17 264.491 202.669 264.298C203.179 264.094 203.745 263.992 204.369 263.992C205.049 263.992 205.649 264.1 206.171 264.315C206.692 264.53 207.117 264.831 207.446 265.216L206.885 265.998C206.567 265.635 206.188 265.369 205.746 265.199C205.315 265.018 204.833 264.927 204.301 264.927C203.938 264.927 203.592 264.978 203.264 265.08C202.935 265.171 202.663 265.329 202.448 265.556C202.244 265.771 202.142 266.072 202.142 266.457C202.142 266.774 202.221 267.024 202.38 267.205C202.538 267.375 202.776 267.522 203.094 267.647C203.411 267.76 203.802 267.885 204.267 268.021C204.935 268.202 205.519 268.389 206.018 268.582C206.516 268.763 206.902 269.001 207.174 269.296C207.446 269.591 207.582 270.004 207.582 270.537C207.582 271.364 207.27 272.01 206.647 272.475C206.023 272.94 205.202 273.172 204.182 273.172ZM217.668 273.172C216.931 273.172 216.268 272.979 215.679 272.594C215.101 272.209 214.642 271.733 214.302 271.166V276.623H213.146V264.145H214.183V265.862C214.534 265.307 215.004 264.859 215.594 264.519C216.183 264.168 216.812 263.992 217.481 263.992C218.093 263.992 218.654 264.122 219.164 264.383C219.674 264.632 220.116 264.972 220.49 265.403C220.864 265.834 221.153 266.327 221.357 266.882C221.572 267.426 221.68 267.993 221.68 268.582C221.68 269.409 221.51 270.174 221.17 270.877C220.841 271.568 220.376 272.124 219.776 272.543C219.175 272.962 218.472 273.172 217.668 273.172ZM217.345 272.152C217.832 272.152 218.268 272.056 218.654 271.863C219.039 271.659 219.368 271.387 219.64 271.047C219.923 270.707 220.138 270.327 220.286 269.908C220.433 269.477 220.507 269.035 220.507 268.582C220.507 268.106 220.422 267.653 220.252 267.222C220.093 266.791 219.861 266.412 219.555 266.083C219.249 265.754 218.897 265.494 218.501 265.301C218.104 265.108 217.673 265.012 217.209 265.012C216.914 265.012 216.608 265.069 216.291 265.182C215.973 265.295 215.667 265.46 215.373 265.675C215.089 265.879 214.851 266.111 214.659 266.372C214.466 266.633 214.347 266.91 214.302 267.205V269.925C214.483 270.344 214.727 270.724 215.033 271.064C215.339 271.393 215.69 271.659 216.087 271.863C216.495 272.056 216.914 272.152 217.345 272.152ZM227.718 265.165C226.947 265.188 226.267 265.403 225.678 265.811C225.1 266.219 224.692 266.78 224.454 267.494V273.002H223.298V264.145H224.386V266.27C224.692 265.647 225.094 265.142 225.593 264.757C226.103 264.372 226.641 264.156 227.208 264.111C227.321 264.1 227.417 264.094 227.497 264.094C227.587 264.094 227.661 264.1 227.718 264.111V265.165ZM232.41 273.172C231.775 273.172 231.186 273.053 230.642 272.815C230.109 272.566 229.644 272.231 229.248 271.812C228.862 271.381 228.562 270.894 228.347 270.35C228.131 269.795 228.024 269.211 228.024 268.599C228.024 267.964 228.131 267.375 228.347 266.831C228.562 266.276 228.868 265.788 229.265 265.369C229.661 264.938 230.126 264.604 230.659 264.366C231.203 264.117 231.792 263.992 232.427 263.992C233.061 263.992 233.645 264.117 234.178 264.366C234.71 264.604 235.175 264.938 235.572 265.369C235.968 265.788 236.274 266.276 236.49 266.831C236.705 267.375 236.813 267.964 236.813 268.599C236.813 269.211 236.705 269.795 236.49 270.35C236.274 270.894 235.968 271.381 235.572 271.812C235.186 272.231 234.722 272.566 234.178 272.815C233.645 273.053 233.056 273.172 232.41 273.172ZM229.197 268.616C229.197 269.273 229.338 269.874 229.622 270.418C229.916 270.951 230.307 271.376 230.795 271.693C231.282 271.999 231.82 272.152 232.41 272.152C232.999 272.152 233.537 271.993 234.025 271.676C234.512 271.359 234.903 270.928 235.198 270.384C235.492 269.829 235.64 269.228 235.64 268.582C235.64 267.925 235.492 267.324 235.198 266.78C234.903 266.236 234.512 265.805 234.025 265.488C233.537 265.171 232.999 265.012 232.41 265.012C231.82 265.012 231.282 265.176 230.795 265.505C230.319 265.834 229.933 266.27 229.639 266.814C229.344 267.347 229.197 267.947 229.197 268.616ZM237.08 276.079C236.706 276.079 236.355 276.028 236.026 275.926C235.686 275.824 235.391 275.654 235.142 275.416L235.703 274.634C235.873 274.793 236.071 274.9 236.298 274.957C236.513 275.014 236.729 275.042 236.944 275.042C237.216 275.042 237.471 274.974 237.709 274.838C237.947 274.702 238.14 274.509 238.287 274.26C238.446 274.022 238.525 273.756 238.525 273.461V264.145H239.681V273.393C239.681 273.914 239.556 274.379 239.307 274.787C239.058 275.195 238.735 275.512 238.338 275.739C237.941 275.966 237.522 276.079 237.08 276.079ZM238.525 262.292V260.592H239.681V262.292H238.525ZM245.709 273.172C245.075 273.172 244.485 273.053 243.941 272.815C243.397 272.566 242.927 272.231 242.53 271.812C242.134 271.381 241.822 270.888 241.595 270.333C241.38 269.778 241.272 269.183 241.272 268.548C241.272 267.721 241.459 266.961 241.833 266.27C242.219 265.579 242.746 265.029 243.414 264.621C244.083 264.202 244.842 263.992 245.692 263.992C246.565 263.992 247.324 264.202 247.97 264.621C248.628 265.04 249.143 265.596 249.517 266.287C249.891 266.967 250.078 267.715 250.078 268.531C250.078 268.622 250.078 268.712 250.078 268.803C250.078 268.882 250.073 268.945 250.061 268.99H242.479C242.536 269.625 242.712 270.191 243.006 270.69C243.312 271.177 243.703 271.568 244.179 271.863C244.667 272.146 245.194 272.288 245.76 272.288C246.338 272.288 246.882 272.141 247.392 271.846C247.914 271.551 248.276 271.166 248.48 270.69L249.483 270.962C249.302 271.381 249.024 271.761 248.65 272.101C248.276 272.441 247.834 272.707 247.324 272.9C246.826 273.081 246.287 273.172 245.709 273.172ZM242.445 268.157H248.99C248.945 267.511 248.769 266.944 248.463 266.457C248.169 265.97 247.778 265.59 247.29 265.318C246.814 265.035 246.287 264.893 245.709 264.893C245.131 264.893 244.604 265.035 244.128 265.318C243.652 265.59 243.261 265.975 242.955 266.474C242.661 266.961 242.491 267.522 242.445 268.157ZM255.364 273.172C254.718 273.172 254.123 273.053 253.579 272.815C253.046 272.566 252.576 272.226 252.168 271.795C251.771 271.364 251.459 270.871 251.233 270.316C251.017 269.761 250.91 269.171 250.91 268.548C250.91 267.709 251.097 266.944 251.471 266.253C251.845 265.562 252.366 265.012 253.035 264.604C253.703 264.196 254.474 263.992 255.347 263.992C256.174 263.992 256.905 264.185 257.54 264.57C258.174 264.944 258.645 265.454 258.951 266.1L257.829 266.457C257.579 266.004 257.228 265.652 256.775 265.403C256.333 265.142 255.84 265.012 255.296 265.012C254.706 265.012 254.168 265.165 253.681 265.471C253.193 265.777 252.802 266.196 252.508 266.729C252.224 267.262 252.083 267.868 252.083 268.548C252.083 269.217 252.23 269.823 252.525 270.367C252.819 270.911 253.21 271.347 253.698 271.676C254.185 271.993 254.723 272.152 255.313 272.152C255.698 272.152 256.066 272.084 256.418 271.948C256.78 271.812 257.092 271.631 257.353 271.404C257.625 271.166 257.806 270.911 257.897 270.639L259.036 270.979C258.877 271.398 258.611 271.778 258.237 272.118C257.874 272.447 257.443 272.707 256.945 272.9C256.457 273.081 255.93 273.172 255.364 273.172ZM264.762 272.577C264.671 272.611 264.529 272.673 264.337 272.764C264.144 272.855 263.912 272.934 263.64 273.002C263.368 273.07 263.073 273.104 262.756 273.104C262.427 273.104 262.115 273.042 261.821 272.917C261.537 272.792 261.311 272.605 261.141 272.356C260.971 272.095 260.886 271.778 260.886 271.404V265.063H259.662V264.145H260.886V261.153H262.042V264.145H264.082V265.063H262.042V271.081C262.064 271.398 262.178 271.636 262.382 271.795C262.597 271.954 262.841 272.033 263.113 272.033C263.43 272.033 263.719 271.982 263.98 271.88C264.24 271.767 264.399 271.687 264.456 271.642L264.762 272.577ZM269.859 273.002V264.145H271.015V273.002H269.859ZM269.859 262.292V260.592H271.015V262.292H269.859ZM276.128 273.172C275.403 273.172 274.729 273.053 274.105 272.815C273.482 272.577 272.944 272.214 272.49 271.727L272.966 270.911C273.465 271.376 273.964 271.716 274.462 271.931C274.972 272.135 275.511 272.237 276.077 272.237C276.769 272.237 277.33 272.101 277.76 271.829C278.191 271.546 278.406 271.143 278.406 270.622C278.406 270.271 278.299 270.004 278.083 269.823C277.879 269.63 277.579 269.477 277.182 269.364C276.797 269.239 276.332 269.109 275.788 268.973C275.176 268.803 274.661 268.627 274.241 268.446C273.833 268.253 273.522 268.015 273.306 267.732C273.102 267.437 273 267.058 273 266.593C273 266.015 273.142 265.539 273.425 265.165C273.72 264.78 274.117 264.491 274.615 264.298C275.125 264.094 275.692 263.992 276.315 263.992C276.995 263.992 277.596 264.1 278.117 264.315C278.639 264.53 279.064 264.831 279.392 265.216L278.831 265.998C278.514 265.635 278.134 265.369 277.692 265.199C277.262 265.018 276.78 264.927 276.247 264.927C275.885 264.927 275.539 264.978 275.21 265.08C274.882 265.171 274.61 265.329 274.394 265.556C274.19 265.771 274.088 266.072 274.088 266.457C274.088 266.774 274.168 267.024 274.326 267.205C274.485 267.375 274.723 267.522 275.04 267.647C275.358 267.76 275.749 267.885 276.213 268.021C276.882 268.202 277.466 268.389 277.964 268.582C278.463 268.763 278.848 269.001 279.12 269.296C279.392 269.591 279.528 270.004 279.528 270.537C279.528 271.364 279.217 272.01 278.593 272.475C277.97 272.94 277.148 273.172 276.128 273.172ZM285.007 269.347V264.145H286.163V269.143C286.163 270.152 286.333 270.905 286.673 271.404C287.024 271.903 287.54 272.152 288.22 272.152C288.673 272.152 289.11 272.056 289.529 271.863C289.96 271.659 290.339 271.376 290.668 271.013C290.997 270.639 291.246 270.208 291.416 269.721V264.145H292.572V271.608C292.572 271.767 292.606 271.886 292.674 271.965C292.742 272.033 292.844 272.073 292.98 272.084V273.002C292.844 273.013 292.736 273.019 292.657 273.019C292.578 273.03 292.504 273.036 292.436 273.036C292.209 273.013 292.011 272.923 291.841 272.764C291.682 272.605 291.597 272.413 291.586 272.186L291.552 270.996C291.167 271.676 290.64 272.209 289.971 272.594C289.314 272.979 288.6 273.172 287.829 273.172C286.9 273.172 286.197 272.849 285.721 272.203C285.245 271.557 285.007 270.605 285.007 269.347ZM302.292 273.002H301.136V268.055C301.136 267.012 300.983 266.253 300.677 265.777C300.371 265.29 299.889 265.046 299.232 265.046C298.779 265.046 298.331 265.159 297.889 265.386C297.447 265.601 297.056 265.902 296.716 266.287C296.387 266.661 296.149 267.092 296.002 267.579V273.002H294.846V264.145H295.9V266.151C296.138 265.72 296.45 265.346 296.835 265.029C297.22 264.7 297.657 264.445 298.144 264.264C298.631 264.083 299.136 263.992 299.657 263.992C300.144 263.992 300.558 264.083 300.898 264.264C301.238 264.445 301.51 264.706 301.714 265.046C301.918 265.375 302.065 265.777 302.156 266.253C302.247 266.718 302.292 267.239 302.292 267.817V273.002ZM303.822 268.599C303.822 267.76 303.992 266.995 304.332 266.304C304.683 265.601 305.165 265.04 305.777 264.621C306.389 264.202 307.086 263.992 307.868 263.992C308.605 263.992 309.262 264.19 309.84 264.587C310.429 264.972 310.888 265.443 311.217 265.998V260.592H312.373V271.608C312.373 271.767 312.407 271.886 312.475 271.965C312.543 272.033 312.645 272.073 312.781 272.084V273.002C312.554 273.036 312.379 273.047 312.254 273.036C312.016 273.025 311.806 272.928 311.625 272.747C311.444 272.566 311.353 272.367 311.353 272.152V271.285C311.002 271.863 310.526 272.322 309.925 272.662C309.324 273.002 308.701 273.172 308.055 273.172C307.443 273.172 306.876 273.047 306.355 272.798C305.845 272.549 305.397 272.209 305.012 271.778C304.638 271.347 304.343 270.86 304.128 270.316C303.924 269.761 303.822 269.188 303.822 268.599ZM311.217 269.959V267.222C311.07 266.814 310.832 266.446 310.503 266.117C310.174 265.777 309.8 265.511 309.381 265.318C308.973 265.114 308.565 265.012 308.157 265.012C307.681 265.012 307.25 265.114 306.865 265.318C306.48 265.511 306.145 265.777 305.862 266.117C305.59 266.457 305.38 266.842 305.233 267.273C305.086 267.704 305.012 268.146 305.012 268.599C305.012 269.075 305.091 269.528 305.25 269.959C305.42 270.39 305.658 270.775 305.964 271.115C306.27 271.444 306.621 271.699 307.018 271.88C307.415 272.061 307.845 272.152 308.31 272.152C308.605 272.152 308.911 272.095 309.228 271.982C309.545 271.869 309.846 271.716 310.129 271.523C310.424 271.319 310.667 271.081 310.86 270.809C311.053 270.537 311.172 270.254 311.217 269.959ZM318.477 273.172C317.843 273.172 317.253 273.053 316.709 272.815C316.165 272.566 315.695 272.231 315.298 271.812C314.902 271.381 314.59 270.888 314.363 270.333C314.148 269.778 314.04 269.183 314.04 268.548C314.04 267.721 314.227 266.961 314.601 266.27C314.987 265.579 315.514 265.029 316.182 264.621C316.851 264.202 317.61 263.992 318.46 263.992C319.333 263.992 320.092 264.202 320.738 264.621C321.396 265.04 321.911 265.596 322.285 266.287C322.659 266.967 322.846 267.715 322.846 268.531C322.846 268.622 322.846 268.712 322.846 268.803C322.846 268.882 322.841 268.945 322.829 268.99H315.247C315.304 269.625 315.48 270.191 315.774 270.69C316.08 271.177 316.471 271.568 316.947 271.863C317.435 272.146 317.962 272.288 318.528 272.288C319.106 272.288 319.65 272.141 320.16 271.846C320.682 271.551 321.044 271.166 321.248 270.69L322.251 270.962C322.07 271.381 321.792 271.761 321.418 272.101C321.044 272.441 320.602 272.707 320.092 272.9C319.594 273.081 319.055 273.172 318.477 273.172ZM315.213 268.157H321.758C321.713 267.511 321.537 266.944 321.231 266.457C320.937 265.97 320.546 265.59 320.058 265.318C319.582 265.035 319.055 264.893 318.477 264.893C317.899 264.893 317.372 265.035 316.896 265.318C316.42 265.59 316.029 265.975 315.723 266.474C315.429 266.961 315.259 267.522 315.213 268.157ZM328.71 265.165C327.939 265.188 327.259 265.403 326.67 265.811C326.092 266.219 325.684 266.78 325.446 267.494V273.002H324.29V264.145H325.378V266.27C325.684 265.647 326.086 265.142 326.585 264.757C327.095 264.372 327.633 264.156 328.2 264.111C328.313 264.1 328.409 264.094 328.489 264.094C328.579 264.094 328.653 264.1 328.71 264.111V265.165ZM341.062 264.145H342.201L338.393 273.002H337.39L335.537 268.599L333.701 273.002H332.698L328.89 264.145H330.012L333.242 271.812L334.874 267.817L333.378 264.162H334.415L335.537 267.035L336.676 264.162H337.696L336.217 267.817L337.849 271.812L341.062 264.145ZM342.469 270.452C342.469 269.897 342.628 269.421 342.945 269.024C343.262 268.616 343.699 268.304 344.254 268.089C344.821 267.862 345.472 267.749 346.209 267.749C346.64 267.749 347.087 267.783 347.552 267.851C348.017 267.919 348.43 268.021 348.793 268.157V267.409C348.793 266.661 348.572 266.066 348.13 265.624C347.688 265.182 347.076 264.961 346.294 264.961C345.818 264.961 345.348 265.052 344.883 265.233C344.43 265.403 343.954 265.658 343.455 265.998L343.013 265.182C343.591 264.785 344.158 264.491 344.713 264.298C345.268 264.094 345.835 263.992 346.413 263.992C347.501 263.992 348.362 264.304 348.997 264.927C349.632 265.55 349.949 266.412 349.949 267.511V271.608C349.949 271.767 349.983 271.886 350.051 271.965C350.119 272.033 350.227 272.073 350.374 272.084V273.002C350.249 273.013 350.142 273.025 350.051 273.036C349.96 273.047 349.892 273.047 349.847 273.036C349.564 273.025 349.348 272.934 349.201 272.764C349.054 272.594 348.974 272.413 348.963 272.22L348.946 271.574C348.549 272.084 348.034 272.481 347.399 272.764C346.764 273.036 346.118 273.172 345.461 273.172C344.894 273.172 344.379 273.053 343.914 272.815C343.461 272.566 343.104 272.237 342.843 271.829C342.594 271.41 342.469 270.951 342.469 270.452ZM348.402 271.132C348.527 270.973 348.623 270.82 348.691 270.673C348.759 270.526 348.793 270.395 348.793 270.282V268.99C348.408 268.843 348.005 268.729 347.586 268.65C347.178 268.571 346.764 268.531 346.345 268.531C345.518 268.531 344.849 268.695 344.339 269.024C343.829 269.353 343.574 269.8 343.574 270.367C343.574 270.696 343.659 271.007 343.829 271.302C343.999 271.585 344.248 271.823 344.577 272.016C344.906 272.197 345.291 272.288 345.733 272.288C346.288 272.288 346.804 272.18 347.28 271.965C347.767 271.75 348.141 271.472 348.402 271.132ZM352.351 275.722C352.51 275.733 352.663 275.739 352.81 275.739C352.957 275.75 353.065 275.745 353.133 275.722C353.269 275.699 353.399 275.62 353.524 275.484C353.649 275.348 353.796 275.087 353.966 274.702C354.136 274.317 354.374 273.75 354.68 273.002L350.821 264.145H352.045L355.292 271.812L358.284 264.145H359.44L354.85 275.569C354.771 275.784 354.652 275.983 354.493 276.164C354.334 276.357 354.136 276.504 353.898 276.606C353.671 276.719 353.388 276.782 353.048 276.793C352.946 276.804 352.838 276.804 352.725 276.793C352.623 276.793 352.498 276.782 352.351 276.759V275.722ZM130.973 295.452C130.973 294.897 131.131 294.421 131.449 294.024C131.766 293.616 132.202 293.304 132.758 293.089C133.324 292.862 133.976 292.749 134.713 292.749C135.143 292.749 135.591 292.783 136.056 292.851C136.52 292.919 136.934 293.021 137.297 293.157V292.409C137.297 291.661 137.076 291.066 136.634 290.624C136.192 290.182 135.58 289.961 134.798 289.961C134.322 289.961 133.851 290.052 133.387 290.233C132.933 290.403 132.457 290.658 131.959 290.998L131.517 290.182C132.095 289.785 132.661 289.491 133.217 289.298C133.772 289.094 134.339 288.992 134.917 288.992C136.005 288.992 136.866 289.304 137.501 289.927C138.135 290.55 138.453 291.412 138.453 292.511V296.608C138.453 296.767 138.487 296.886 138.555 296.965C138.623 297.033 138.73 297.073 138.878 297.084V298.002C138.753 298.013 138.645 298.025 138.555 298.036C138.464 298.047 138.396 298.047 138.351 298.036C138.067 298.025 137.852 297.934 137.705 297.764C137.557 297.594 137.478 297.413 137.467 297.22L137.45 296.574C137.053 297.084 136.537 297.481 135.903 297.764C135.268 298.036 134.622 298.172 133.965 298.172C133.398 298.172 132.882 298.053 132.418 297.815C131.964 297.566 131.607 297.237 131.347 296.829C131.097 296.41 130.973 295.951 130.973 295.452ZM136.906 296.132C137.03 295.973 137.127 295.82 137.195 295.673C137.263 295.526 137.297 295.395 137.297 295.282V293.99C136.911 293.843 136.509 293.729 136.09 293.65C135.682 293.571 135.268 293.531 134.849 293.531C134.021 293.531 133.353 293.695 132.843 294.024C132.333 294.353 132.078 294.8 132.078 295.367C132.078 295.696 132.163 296.007 132.333 296.302C132.503 296.585 132.752 296.823 133.081 297.016C133.409 297.197 133.795 297.288 134.237 297.288C134.792 297.288 135.308 297.18 135.784 296.965C136.271 296.75 136.645 296.472 136.906 296.132ZM148.056 298.002H146.9V293.055C146.9 292.012 146.747 291.253 146.441 290.777C146.135 290.29 145.654 290.046 144.996 290.046C144.543 290.046 144.095 290.159 143.653 290.386C143.211 290.601 142.82 290.902 142.48 291.287C142.152 291.661 141.914 292.092 141.766 292.579V298.002H140.61V289.145H141.664V291.151C141.902 290.72 142.214 290.346 142.599 290.029C142.985 289.7 143.421 289.445 143.908 289.264C144.396 289.083 144.9 288.992 145.421 288.992C145.909 288.992 146.322 289.083 146.662 289.264C147.002 289.445 147.274 289.706 147.478 290.046C147.682 290.375 147.83 290.777 147.92 291.253C148.011 291.718 148.056 292.239 148.056 292.817V298.002ZM149.587 293.599C149.587 292.76 149.757 291.995 150.097 291.304C150.448 290.601 150.93 290.04 151.542 289.621C152.154 289.202 152.851 288.992 153.633 288.992C154.369 288.992 155.027 289.19 155.605 289.587C156.194 289.972 156.653 290.443 156.982 290.998V285.592H158.138V296.608C158.138 296.767 158.172 296.886 158.24 296.965C158.308 297.033 158.41 297.073 158.546 297.084V298.002C158.319 298.036 158.143 298.047 158.019 298.036C157.781 298.025 157.571 297.928 157.39 297.747C157.208 297.566 157.118 297.367 157.118 297.152V296.285C156.766 296.863 156.29 297.322 155.69 297.662C155.089 298.002 154.466 298.172 153.82 298.172C153.208 298.172 152.641 298.047 152.12 297.798C151.61 297.549 151.162 297.209 150.777 296.778C150.403 296.347 150.108 295.86 149.893 295.316C149.689 294.761 149.587 294.188 149.587 293.599ZM156.982 294.959V292.222C156.834 291.814 156.596 291.446 156.268 291.117C155.939 290.777 155.565 290.511 155.146 290.318C154.738 290.114 154.33 290.012 153.922 290.012C153.446 290.012 153.015 290.114 152.63 290.318C152.244 290.511 151.91 290.777 151.627 291.117C151.355 291.457 151.145 291.842 150.998 292.273C150.85 292.704 150.777 293.146 150.777 293.599C150.777 294.075 150.856 294.528 151.015 294.959C151.185 295.39 151.423 295.775 151.729 296.115C152.035 296.444 152.386 296.699 152.783 296.88C153.179 297.061 153.61 297.152 154.075 297.152C154.369 297.152 154.675 297.095 154.993 296.982C155.31 296.869 155.61 296.716 155.894 296.523C156.188 296.319 156.432 296.081 156.625 295.809C156.817 295.537 156.936 295.254 156.982 294.959ZM175.08 289.145H176.219L172.411 298.002H171.408L169.555 293.599L167.719 298.002H166.716L162.908 289.145H164.03L167.26 296.812L168.892 292.817L167.396 289.162H168.433L169.555 292.035L170.694 289.162H171.714L170.235 292.817L171.867 296.812L175.08 289.145ZM177.417 298.002V289.145H178.573V298.002H177.417ZM177.417 287.292V285.592H178.573V287.292H177.417ZM180.831 285.592H181.987V295.996C181.987 296.438 182.066 296.727 182.225 296.863C182.383 296.999 182.576 297.067 182.803 297.067C183.007 297.067 183.211 297.044 183.415 296.999C183.619 296.954 183.794 296.908 183.942 296.863L184.146 297.798C183.93 297.889 183.664 297.962 183.347 298.019C183.041 298.076 182.774 298.104 182.548 298.104C182.026 298.104 181.607 297.951 181.29 297.645C180.984 297.339 180.831 296.92 180.831 296.387V285.592ZM185.122 285.592H186.278V295.996C186.278 296.438 186.358 296.727 186.516 296.863C186.675 296.999 186.868 297.067 187.094 297.067C187.298 297.067 187.502 297.044 187.706 296.999C187.91 296.954 188.086 296.908 188.233 296.863L188.437 297.798C188.222 297.889 187.956 297.962 187.638 298.019C187.332 298.076 187.066 298.104 186.839 298.104C186.318 298.104 185.899 297.951 185.581 297.645C185.275 297.339 185.122 296.92 185.122 296.387V285.592ZM197.177 298.172C196.485 298.172 195.845 297.996 195.256 297.645C194.666 297.282 194.207 296.829 193.879 296.285V298.002H192.842V285.592H193.998V290.998C194.394 290.397 194.87 289.916 195.426 289.553C195.981 289.179 196.627 288.992 197.364 288.992C197.987 288.992 198.542 289.122 199.03 289.383C199.528 289.644 199.953 289.995 200.305 290.437C200.656 290.868 200.922 291.361 201.104 291.916C201.285 292.46 201.376 293.021 201.376 293.599C201.376 294.222 201.268 294.806 201.053 295.35C200.849 295.894 200.554 296.381 200.169 296.812C199.783 297.231 199.336 297.566 198.826 297.815C198.327 298.053 197.777 298.172 197.177 298.172ZM196.905 297.152C197.381 297.152 197.823 297.056 198.231 296.863C198.639 296.67 198.99 296.404 199.285 296.064C199.579 295.724 199.806 295.344 199.965 294.925C200.123 294.494 200.203 294.052 200.203 293.599C200.203 292.976 200.067 292.392 199.795 291.848C199.534 291.293 199.166 290.851 198.69 290.522C198.225 290.182 197.675 290.012 197.041 290.012C196.587 290.012 196.162 290.114 195.766 290.318C195.38 290.522 195.035 290.794 194.729 291.134C194.434 291.463 194.19 291.825 193.998 292.222V294.976C194.043 295.282 194.162 295.571 194.355 295.843C194.547 296.104 194.785 296.33 195.069 296.523C195.363 296.716 195.669 296.869 195.987 296.982C196.304 297.095 196.61 297.152 196.905 297.152ZM206.819 298.172C206.184 298.172 205.595 298.053 205.051 297.815C204.507 297.566 204.036 297.231 203.64 296.812C203.243 296.381 202.931 295.888 202.705 295.333C202.489 294.778 202.382 294.183 202.382 293.548C202.382 292.721 202.569 291.961 202.943 291.27C203.328 290.579 203.855 290.029 204.524 289.621C205.192 289.202 205.952 288.992 206.802 288.992C207.674 288.992 208.434 289.202 209.08 289.621C209.737 290.04 210.253 290.596 210.627 291.287C211.001 291.967 211.188 292.715 211.188 293.531C211.188 293.622 211.188 293.712 211.188 293.803C211.188 293.882 211.182 293.945 211.171 293.99H203.589C203.645 294.625 203.821 295.191 204.116 295.69C204.422 296.177 204.813 296.568 205.289 296.863C205.776 297.146 206.303 297.288 206.87 297.288C207.448 297.288 207.992 297.141 208.502 296.846C209.023 296.551 209.386 296.166 209.59 295.69L210.593 295.962C210.411 296.381 210.134 296.761 209.76 297.101C209.386 297.441 208.944 297.707 208.434 297.9C207.935 298.081 207.397 298.172 206.819 298.172ZM203.555 293.157H210.1C210.054 292.511 209.879 291.944 209.573 291.457C209.278 290.97 208.887 290.59 208.4 290.318C207.924 290.035 207.397 289.893 206.819 289.893C206.241 289.893 205.714 290.035 205.238 290.318C204.762 290.59 204.371 290.975 204.065 291.474C203.77 291.961 203.6 292.522 203.555 293.157ZM220.466 298.172C219.82 298.172 219.225 298.053 218.681 297.815C218.149 297.566 217.678 297.226 217.27 296.795C216.874 296.364 216.562 295.871 216.335 295.316C216.12 294.761 216.012 294.171 216.012 293.548C216.012 292.709 216.199 291.944 216.573 291.253C216.947 290.562 217.469 290.012 218.137 289.604C218.806 289.196 219.577 288.992 220.449 288.992C221.277 288.992 222.008 289.185 222.642 289.57C223.277 289.944 223.747 290.454 224.053 291.1L222.931 291.457C222.682 291.004 222.331 290.652 221.877 290.403C221.435 290.142 220.942 290.012 220.398 290.012C219.809 290.012 219.271 290.165 218.783 290.471C218.296 290.777 217.905 291.196 217.61 291.729C217.327 292.262 217.185 292.868 217.185 293.548C217.185 294.217 217.333 294.823 217.627 295.367C217.922 295.911 218.313 296.347 218.8 296.676C219.288 296.993 219.826 297.152 220.415 297.152C220.801 297.152 221.169 297.084 221.52 296.948C221.883 296.812 222.195 296.631 222.455 296.404C222.727 296.166 222.909 295.911 222.999 295.639L224.138 295.979C223.98 296.398 223.713 296.778 223.339 297.118C222.977 297.447 222.546 297.707 222.047 297.9C221.56 298.081 221.033 298.172 220.466 298.172ZM229.305 298.172C228.671 298.172 228.081 298.053 227.537 297.815C227.005 297.566 226.54 297.231 226.143 296.812C225.758 296.381 225.458 295.894 225.242 295.35C225.027 294.795 224.919 294.211 224.919 293.599C224.919 292.964 225.027 292.375 225.242 291.831C225.458 291.276 225.764 290.788 226.16 290.369C226.557 289.938 227.022 289.604 227.554 289.366C228.098 289.117 228.688 288.992 229.322 288.992C229.957 288.992 230.541 289.117 231.073 289.366C231.606 289.604 232.071 289.938 232.467 290.369C232.864 290.788 233.17 291.276 233.385 291.831C233.601 292.375 233.708 292.964 233.708 293.599C233.708 294.211 233.601 294.795 233.385 295.35C233.17 295.894 232.864 296.381 232.467 296.812C232.082 297.231 231.617 297.566 231.073 297.815C230.541 298.053 229.951 298.172 229.305 298.172ZM226.092 293.616C226.092 294.273 226.234 294.874 226.517 295.418C226.812 295.951 227.203 296.376 227.69 296.693C228.178 296.999 228.716 297.152 229.305 297.152C229.895 297.152 230.433 296.993 230.92 296.676C231.408 296.359 231.799 295.928 232.093 295.384C232.388 294.829 232.535 294.228 232.535 293.582C232.535 292.925 232.388 292.324 232.093 291.78C231.799 291.236 231.408 290.805 230.92 290.488C230.433 290.171 229.895 290.012 229.305 290.012C228.716 290.012 228.178 290.176 227.69 290.505C227.214 290.834 226.829 291.27 226.534 291.814C226.24 292.347 226.092 292.947 226.092 293.616ZM248.477 298.002H247.321V293.055C247.321 292.024 247.156 291.264 246.828 290.777C246.499 290.29 246.012 290.046 245.366 290.046C244.697 290.046 244.096 290.284 243.564 290.76C243.042 291.236 242.674 291.848 242.459 292.596V298.002H241.303V293.055C241.303 292.012 241.144 291.253 240.827 290.777C240.509 290.29 240.022 290.046 239.365 290.046C238.707 290.046 238.112 290.278 237.58 290.743C237.047 291.208 236.673 291.82 236.458 292.579V298.002H235.302V289.145H236.356V291.151C236.73 290.46 237.206 289.927 237.784 289.553C238.373 289.179 239.025 288.992 239.739 288.992C240.475 288.992 241.07 289.202 241.524 289.621C241.977 290.04 242.255 290.59 242.357 291.27C242.765 290.522 243.252 289.955 243.819 289.57C244.397 289.185 245.048 288.992 245.774 288.992C246.272 288.992 246.692 289.083 247.032 289.264C247.383 289.445 247.661 289.706 247.865 290.046C248.08 290.375 248.233 290.777 248.324 291.253C248.426 291.718 248.477 292.239 248.477 292.817V298.002ZM255.106 298.172C254.369 298.172 253.706 297.979 253.117 297.594C252.539 297.209 252.08 296.733 251.74 296.166V301.623H250.584V289.145H251.621V290.862C251.972 290.307 252.442 289.859 253.032 289.519C253.621 289.168 254.25 288.992 254.919 288.992C255.531 288.992 256.092 289.122 256.602 289.383C257.112 289.632 257.554 289.972 257.928 290.403C258.302 290.834 258.591 291.327 258.795 291.882C259.01 292.426 259.118 292.993 259.118 293.582C259.118 294.409 258.948 295.174 258.608 295.877C258.279 296.568 257.814 297.124 257.214 297.543C256.613 297.962 255.91 298.172 255.106 298.172ZM254.783 297.152C255.27 297.152 255.706 297.056 256.092 296.863C256.477 296.659 256.806 296.387 257.078 296.047C257.361 295.707 257.576 295.327 257.724 294.908C257.871 294.477 257.945 294.035 257.945 293.582C257.945 293.106 257.86 292.653 257.69 292.222C257.531 291.791 257.299 291.412 256.993 291.083C256.687 290.754 256.335 290.494 255.939 290.301C255.542 290.108 255.111 290.012 254.647 290.012C254.352 290.012 254.046 290.069 253.729 290.182C253.411 290.295 253.105 290.46 252.811 290.675C252.527 290.879 252.289 291.111 252.097 291.372C251.904 291.633 251.785 291.91 251.74 292.205V294.925C251.921 295.344 252.165 295.724 252.471 296.064C252.777 296.393 253.128 296.659 253.525 296.863C253.933 297.056 254.352 297.152 254.783 297.152ZM260.787 285.592H261.943V295.996C261.943 296.438 262.022 296.727 262.181 296.863C262.34 296.999 262.532 297.067 262.759 297.067C262.963 297.067 263.167 297.044 263.371 296.999C263.575 296.954 263.751 296.908 263.898 296.863L264.102 297.798C263.887 297.889 263.62 297.962 263.303 298.019C262.997 298.076 262.731 298.104 262.504 298.104C261.983 298.104 261.563 297.951 261.246 297.645C260.94 297.339 260.787 296.92 260.787 296.387V285.592ZM268.853 298.172C268.218 298.172 267.629 298.053 267.085 297.815C266.541 297.566 266.07 297.231 265.674 296.812C265.277 296.381 264.965 295.888 264.739 295.333C264.523 294.778 264.416 294.183 264.416 293.548C264.416 292.721 264.603 291.961 264.977 291.27C265.362 290.579 265.889 290.029 266.558 289.621C267.226 289.202 267.986 288.992 268.836 288.992C269.708 288.992 270.468 289.202 271.114 289.621C271.771 290.04 272.287 290.596 272.661 291.287C273.035 291.967 273.222 292.715 273.222 293.531C273.222 293.622 273.222 293.712 273.222 293.803C273.222 293.882 273.216 293.945 273.205 293.99H265.623C265.679 294.625 265.855 295.191 266.15 295.69C266.456 296.177 266.847 296.568 267.323 296.863C267.81 297.146 268.337 297.288 268.904 297.288C269.482 297.288 270.026 297.141 270.536 296.846C271.057 296.551 271.42 296.166 271.624 295.69L272.627 295.962C272.445 296.381 272.168 296.761 271.794 297.101C271.42 297.441 270.978 297.707 270.468 297.9C269.969 298.081 269.431 298.172 268.853 298.172ZM265.589 293.157H272.134C272.088 292.511 271.913 291.944 271.607 291.457C271.312 290.97 270.921 290.59 270.434 290.318C269.958 290.035 269.431 289.893 268.853 289.893C268.275 289.893 267.748 290.035 267.272 290.318C266.796 290.59 266.405 290.975 266.099 291.474C265.804 291.961 265.634 292.522 265.589 293.157ZM278.832 297.577C278.742 297.611 278.6 297.673 278.407 297.764C278.215 297.855 277.982 297.934 277.71 298.002C277.438 298.07 277.144 298.104 276.826 298.104C276.498 298.104 276.186 298.042 275.891 297.917C275.608 297.792 275.381 297.605 275.211 297.356C275.041 297.095 274.956 296.778 274.956 296.404V290.063H273.732V289.145H274.956V286.153H276.112V289.145H278.152V290.063H276.112V296.081C276.135 296.398 276.248 296.636 276.452 296.795C276.668 296.954 276.911 297.033 277.183 297.033C277.501 297.033 277.79 296.982 278.05 296.88C278.311 296.767 278.47 296.687 278.526 296.642L278.832 297.577ZM283.612 298.172C282.978 298.172 282.388 298.053 281.844 297.815C281.3 297.566 280.83 297.231 280.433 296.812C280.037 296.381 279.725 295.888 279.498 295.333C279.283 294.778 279.175 294.183 279.175 293.548C279.175 292.721 279.362 291.961 279.736 291.27C280.122 290.579 280.649 290.029 281.317 289.621C281.986 289.202 282.745 288.992 283.595 288.992C284.468 288.992 285.227 289.202 285.873 289.621C286.531 290.04 287.046 290.596 287.42 291.287C287.794 291.967 287.981 292.715 287.981 293.531C287.981 293.622 287.981 293.712 287.981 293.803C287.981 293.882 287.976 293.945 287.964 293.99H280.382C280.439 294.625 280.615 295.191 280.909 295.69C281.215 296.177 281.606 296.568 282.082 296.863C282.57 297.146 283.097 297.288 283.663 297.288C284.241 297.288 284.785 297.141 285.295 296.846C285.817 296.551 286.179 296.166 286.383 295.69L287.386 295.962C287.205 296.381 286.927 296.761 286.553 297.101C286.179 297.441 285.737 297.707 285.227 297.9C284.729 298.081 284.19 298.172 283.612 298.172ZM280.348 293.157H286.893C286.848 292.511 286.672 291.944 286.366 291.457C286.072 290.97 285.681 290.59 285.193 290.318C284.717 290.035 284.19 289.893 283.612 289.893C283.034 289.893 282.507 290.035 282.031 290.318C281.555 290.59 281.164 290.975 280.858 291.474C280.564 291.961 280.394 292.522 280.348 293.157ZM288.83 293.599C288.83 292.76 289 291.995 289.34 291.304C289.691 290.601 290.173 290.04 290.785 289.621C291.397 289.202 292.094 288.992 292.876 288.992C293.612 288.992 294.27 289.19 294.848 289.587C295.437 289.972 295.896 290.443 296.225 290.998V285.592H297.381V296.608C297.381 296.767 297.415 296.886 297.483 296.965C297.551 297.033 297.653 297.073 297.789 297.084V298.002C297.562 298.036 297.386 298.047 297.262 298.036C297.024 298.025 296.814 297.928 296.633 297.747C296.451 297.566 296.361 297.367 296.361 297.152V296.285C296.009 296.863 295.533 297.322 294.933 297.662C294.332 298.002 293.709 298.172 293.063 298.172C292.451 298.172 291.884 298.047 291.363 297.798C290.853 297.549 290.405 297.209 290.02 296.778C289.646 296.347 289.351 295.86 289.136 295.316C288.932 294.761 288.83 294.188 288.83 293.599ZM296.225 294.959V292.222C296.077 291.814 295.839 291.446 295.511 291.117C295.182 290.777 294.808 290.511 294.389 290.318C293.981 290.114 293.573 290.012 293.165 290.012C292.689 290.012 292.258 290.114 291.873 290.318C291.487 290.511 291.153 290.777 290.87 291.117C290.598 291.457 290.388 291.842 290.241 292.273C290.093 292.704 290.02 293.146 290.02 293.599C290.02 294.075 290.099 294.528 290.258 294.959C290.428 295.39 290.666 295.775 290.972 296.115C291.278 296.444 291.629 296.699 292.026 296.88C292.422 297.061 292.853 297.152 293.318 297.152C293.612 297.152 293.918 297.095 294.236 296.982C294.553 296.869 294.853 296.716 295.137 296.523C295.431 296.319 295.675 296.081 295.868 295.809C296.06 295.537 296.179 295.254 296.225 294.959ZM306.56 298.172C305.835 298.172 305.16 298.053 304.537 297.815C303.914 297.577 303.375 297.214 302.922 296.727L303.398 295.911C303.897 296.376 304.395 296.716 304.894 296.931C305.404 297.135 305.942 297.237 306.509 297.237C307.2 297.237 307.761 297.101 308.192 296.829C308.623 296.546 308.838 296.143 308.838 295.622C308.838 295.271 308.73 295.004 308.515 294.823C308.311 294.63 308.011 294.477 307.614 294.364C307.229 294.239 306.764 294.109 306.22 293.973C305.608 293.803 305.092 293.627 304.673 293.446C304.265 293.253 303.953 293.015 303.738 292.732C303.534 292.437 303.432 292.058 303.432 291.593C303.432 291.015 303.574 290.539 303.857 290.165C304.152 289.78 304.548 289.491 305.047 289.298C305.557 289.094 306.124 288.992 306.747 288.992C307.427 288.992 308.028 289.1 308.549 289.315C309.07 289.53 309.495 289.831 309.824 290.216L309.263 290.998C308.946 290.635 308.566 290.369 308.124 290.199C307.693 290.018 307.212 289.927 306.679 289.927C306.316 289.927 305.971 289.978 305.642 290.08C305.313 290.171 305.041 290.329 304.826 290.556C304.622 290.771 304.52 291.072 304.52 291.457C304.52 291.774 304.599 292.024 304.758 292.205C304.917 292.375 305.155 292.522 305.472 292.647C305.789 292.76 306.18 292.885 306.645 293.021C307.314 293.202 307.897 293.389 308.396 293.582C308.895 293.763 309.28 294.001 309.552 294.296C309.824 294.591 309.96 295.004 309.96 295.537C309.96 296.364 309.648 297.01 309.025 297.475C308.402 297.94 307.58 298.172 306.56 298.172ZM315.305 298.172C314.67 298.172 314.081 298.053 313.537 297.815C313.004 297.566 312.539 297.231 312.143 296.812C311.757 296.381 311.457 295.894 311.242 295.35C311.026 294.795 310.919 294.211 310.919 293.599C310.919 292.964 311.026 292.375 311.242 291.831C311.457 291.276 311.763 290.788 312.16 290.369C312.556 289.938 313.021 289.604 313.554 289.366C314.098 289.117 314.687 288.992 315.322 288.992C315.956 288.992 316.54 289.117 317.073 289.366C317.605 289.604 318.07 289.938 318.467 290.369C318.863 290.788 319.169 291.276 319.385 291.831C319.6 292.375 319.708 292.964 319.708 293.599C319.708 294.211 319.6 294.795 319.385 295.35C319.169 295.894 318.863 296.381 318.467 296.812C318.081 297.231 317.617 297.566 317.073 297.815C316.54 298.053 315.951 298.172 315.305 298.172ZM312.092 293.616C312.092 294.273 312.233 294.874 312.517 295.418C312.811 295.951 313.202 296.376 313.69 296.693C314.177 296.999 314.715 297.152 315.305 297.152C315.894 297.152 316.432 296.993 316.92 296.676C317.407 296.359 317.798 295.928 318.093 295.384C318.387 294.829 318.535 294.228 318.535 293.582C318.535 292.925 318.387 292.324 318.093 291.78C317.798 291.236 317.407 290.805 316.92 290.488C316.432 290.171 315.894 290.012 315.305 290.012C314.715 290.012 314.177 290.176 313.69 290.505C313.214 290.834 312.828 291.27 312.534 291.814C312.239 292.347 312.092 292.947 312.092 293.616ZM325.075 298.172C324.44 298.172 323.851 298.053 323.307 297.815C322.774 297.566 322.31 297.231 321.913 296.812C321.528 296.381 321.227 295.894 321.012 295.35C320.797 294.795 320.689 294.211 320.689 293.599C320.689 292.964 320.797 292.375 321.012 291.831C321.227 291.276 321.533 290.788 321.93 290.369C322.327 289.938 322.791 289.604 323.324 289.366C323.868 289.117 324.457 288.992 325.092 288.992C325.727 288.992 326.31 289.117 326.843 289.366C327.376 289.604 327.84 289.938 328.237 290.369C328.634 290.788 328.94 291.276 329.155 291.831C329.37 292.375 329.478 292.964 329.478 293.599C329.478 294.211 329.37 294.795 329.155 295.35C328.94 295.894 328.634 296.381 328.237 296.812C327.852 297.231 327.387 297.566 326.843 297.815C326.31 298.053 325.721 298.172 325.075 298.172ZM321.862 293.616C321.862 294.273 322.004 294.874 322.287 295.418C322.582 295.951 322.973 296.376 323.46 296.693C323.947 296.999 324.486 297.152 325.075 297.152C325.664 297.152 326.203 296.993 326.69 296.676C327.177 296.359 327.568 295.928 327.863 295.384C328.158 294.829 328.305 294.228 328.305 293.582C328.305 292.925 328.158 292.324 327.863 291.78C327.568 291.236 327.177 290.805 326.69 290.488C326.203 290.171 325.664 290.012 325.075 290.012C324.486 290.012 323.947 290.176 323.46 290.505C322.984 290.834 322.599 291.27 322.304 291.814C322.009 292.347 321.862 292.947 321.862 293.616ZM338.517 298.002H337.361V293.055C337.361 292.012 337.208 291.253 336.902 290.777C336.596 290.29 336.115 290.046 335.457 290.046C335.004 290.046 334.556 290.159 334.114 290.386C333.672 290.601 333.281 290.902 332.941 291.287C332.613 291.661 332.375 292.092 332.227 292.579V298.002H331.071V289.145H332.125V291.151C332.363 290.72 332.675 290.346 333.06 290.029C333.446 289.7 333.882 289.445 334.369 289.264C334.857 289.083 335.361 288.992 335.882 288.992C336.37 288.992 336.783 289.083 337.123 289.264C337.463 289.445 337.735 289.706 337.939 290.046C338.143 290.375 338.291 290.777 338.381 291.253C338.472 291.718 338.517 292.239 338.517 292.817V298.002ZM340.473 298.002V296.336H341.476V298.002H340.473Z" fill="black"/>
<defs>
<filter id="filter0_d_306_40" x="187.85" y="112.094" width="87.2656" height="87.9355" filterUnits="userSpaceOnUse" color-interpolation-filters="sRGB">
<feFlood flood-opacity="0" result="BackgroundImageFix"/>
<feColorMatrix in="SourceAlpha" type="matrix" values="0 0 0 0 0 0 0 0 0 0 0 0 0 0 0 0 0 0 127 0" result="hardAlpha"/>
<feOffset/>
<feGaussianBlur stdDeviation="5"/>
<feComposite in2="hardAlpha" operator="out"/>
<feColorMatrix type="matrix" values="0 0 0 0 0 0 0 0 0 0 0 0 0 0 0 0 0 0 0.5 0"/>
<feBlend mode="normal" in2="BackgroundImageFix" result="effect1_dropShadow_306_40"/>
<feBlend mode="normal" in="SourceGraphic" in2="effect1_dropShadow_306_40" result="shape"/>
</filter>
</defs>
</svg>
